<svg xmlns="http://www.w3.org/2000/svg" viewBox="0 0 402 88" style="stroke:#000;stroke-linecap:round;stroke-linejoin:round;fill:#fff;fill-rule:evenodd;font-family:Roboto;font-size:14px;text-anchor:middle">
    <defs/>
    <defs>
        <style>
            @import url(https://fonts.googleapis.com/css?family=Corben:400,700);
        </style>
    </defs>
    <text fill="#000000" fill-opacity="1" font-size="36" font-weight="bold" font-family="Corben" transform="translate(77 20.12)" style="stroke:none">
        <tspan x="161.5" y="29.88">trashmonger</tspan>
    </text>
    <path d="M1 35.18c0-16.62 13.38-30 30-30 16.62 0 30 13.38 30 30 0 16.62-13.38 30-30 30-16.62 0-30-13.38-30-30z" fill="#ba296f" fill-rule="nonzero" stroke-linecap="butt" stroke-linejoin="miter" stroke-width="2"/>
    <path d="M28.77 18.79c1.15-1.12 1.77-2.16 1.95-2.74.17.58.8 1.62 1.88 2.74.69.72 1.91 1.43 3.03 2.05 4.96 2.25 8.56 7.71 8.97 14.21.04.02.08.03.12.04 1.76.59 2.63 2.78 1.95 4.89-.54 1.7-1.92 2.83-3.36 2.9-.49 1.19-1.1 2.3-1.81 3.33-.05.29-.13.59-.23.89-.83 2.57-2.87 4.23-4.63 3.82-1.94 1.21-4.05 1.9-6.1 1.9-1.91 0-4.01-.73-5.98-2-1.77.44-3.83-1.22-4.68-3.8a7.9 7.9 0 01-.26-1.01c-.68-.97-1.28-2.03-1.77-3.15-1.6.2-3.24-.99-3.85-2.88-.68-2.11.2-4.3 1.95-4.89.18-.06.36-.1.54-.12.44-6.7 4.29-12.28 9.51-14.37 1.05-.56 2.13-1.18 2.77-1.81z" fill="#fee6e6" fill-rule="nonzero" stroke="none" stroke-linecap="butt" stroke-linejoin="miter"/>
    <path clip-rule="evenodd" d="M30.73 14.82c.55 0 1.02.36 1.17.88.09.31.56 1.18 1.58 2.24.54.55 1.56 1.17 2.7 1.8 5.21 2.38 8.93 7.93 9.58 14.47 2.09 1.11 2.83 3.82 2.08 6.14-.58 1.81-1.98 3.23-3.67 3.63-.44.96-.95 1.86-1.52 2.71-.06.26-.13.52-.21.78-.48 1.48-1.32 2.75-2.36 3.6-.89.73-2.01 1.22-3.19 1.12-1.99 1.17-4.17 1.85-6.35 1.85-2.07 0-4.24-.73-6.24-1.94-1.17.1-2.3-.37-3.2-1.1-1.04-.84-1.9-2.11-2.39-3.6-.1-.3-.18-.61-.24-.91-.52-.76-.99-1.56-1.4-2.41-1.94-.2-3.6-1.73-4.24-3.73-.79-2.47.1-5.39 2.51-6.34.74-6.69 4.69-12.31 10.14-14.52 1.05-.56 1.94-1.1 2.44-1.58 1.06-1.04 1.54-1.91 1.63-2.22.16-.52.64-.87 1.18-.87zM26 20.6c-5.22 2.08-9.07 7.66-9.51 14.36-.18.03-.36.07-.54.13-1.75.59-2.63 2.78-1.95 4.89.61 1.89 2.25 3.07 3.85 2.88.49 1.12 1.09 2.17 1.77 3.15.06.33.15.67.26 1 .85 2.59 2.91 4.25 4.68 3.8 1.97 1.28 4.07 2 5.98 2 2.05 0 4.16-.68 6.1-1.9 1.76.42 3.8-1.25 4.63-3.82.1-.3.18-.59.23-.89.71-1.02 1.32-2.14 1.81-3.32 1.44-.08 2.82-1.21 3.36-2.9.68-2.11-.19-4.3-1.95-4.89a.564.564 0 00-.12-.04c-.41-6.5-4.01-11.96-8.97-14.22-1.12-.61-2.34-1.32-3.03-2.04-.47-.49-.86-.97-1.16-1.39-.38-.55-.62-1.03-.72-1.35-.1.32-.34.79-.73 1.34-.31.43-.71.91-1.22 1.4-.64.63-1.72 1.25-2.77 1.81z" fill="#000000" stroke="none" stroke-linecap="butt" stroke-linejoin="miter"/>
    <path clip-rule="evenodd" d="M31.07 13.53l-.46-1.35-.48 1.35v.01l-.01.02c-.01.03-.02.06-.04.11-.03.09-.08.23-.15.39-.13.34-.32.79-.55 1.29-.48 1.01-1.09 2.1-1.7 2.65-.14.13-.49.37-.98.67-.47.3-1.04.63-1.59.95l-1.47.83c-.19.11-.35.19-.47.26-.05.03-.1.05-.13.07l-.04.02.45.81 2.3-.99-1.71 2.72 2.7-1.14-1.88 3 3.29-1.79-1.02 2.29 2.56-1.4-.76 1.88 1.23-.72c.67-.39 2.36-1.49 3.86-2.79 1.05-.91 1.59-1.74 1.83-2.35l.15-.36-.36-.19c-.95-.51-1.51-1.05-2.13-1.65-.03-.04-.07-.07-.11-.11-.57-.55-1.16-1.64-1.61-2.66-.22-.49-.4-.95-.53-1.28-.06-.17-.11-.3-.14-.39-.02-.05-.03-.09-.04-.11l-.01-.03v-.01zm-3.18 5.48l-1.45 2.32 2.7-1.14-1.56 2.47 2.59-1.4-1.01 2.27 2.42-1.33-.67 1.67c.72-.5 1.62-1.15 2.44-1.87.75-.64 1.18-1.22 1.42-1.66-.85-.51-1.41-1.06-1.95-1.58l-.12-.12c-.72-.69-1.37-1.93-1.81-2.93-.11-.25-.21-.48-.3-.7-.09.22-.2.46-.31.7-.48 1.01-1.15 2.25-1.92 2.94-.11.1-.27.23-.47.36z" fill="#000000" stroke="none" stroke-linecap="butt" stroke-linejoin="miter"/>
    <path d="M25.73 38.99v-1.54l.39-.06.03 1.73c-.14-.06-.28-.1-.42-.13zM25.41 38.94l-.48-1.39-.37.14.45 1.32c.13-.04.26-.06.4-.07zM24.49 39.22l-.78-1.4-.34.21.79 1.41c.1-.08.21-.16.33-.22zM23.8 39.81l-1.06-1.3-.3.26 1.12 1.38c.07-.12.15-.23.24-.34zM23.32 40.71l-1.19-1-.25.32 1.34 1.11c.02-.15.06-.29.1-.43zM23.19 41.72l-1.45-.58-.18.36 1.69.71c-.04-.16-.06-.32-.06-.49zM27.1 39.61v-1.99h-.39v1.67c.14.09.27.2.39.32z" fill="#000000" fill-rule="nonzero" stroke="none" stroke-linecap="butt" stroke-linejoin="miter"/>
    <path d="M28.48 41.5c0 1.7-1.32 3.07-2.95 3.07-1.62 0-2.94-1.37-2.94-3.07 0-1.69 1.32-3.06 2.94-3.06 1.63 0 2.95 1.37 2.95 3.06z" fill-rule="nonzero" stroke="none" stroke-linecap="butt" stroke-linejoin="miter"/>
    <path clip-rule="evenodd" d="M25.53 43.75c1.2 0 2.16-1.01 2.16-2.25s-.96-2.24-2.16-2.24c-1.19 0-2.15 1-2.15 2.24 0 1.24.96 2.25 2.15 2.25zm0 .82c1.63 0 2.95-1.37 2.95-3.07 0-1.69-1.32-3.06-2.95-3.06-1.62 0-2.94 1.37-2.94 3.06 0 1.7 1.32 3.07 2.94 3.07z" fill="#000000" stroke="none" stroke-linecap="butt" stroke-linejoin="miter"/>
    <path d="M27.69 42.32c0 1.01-.79 1.84-1.76 1.84-.98 0-1.77-.83-1.77-1.84 0-1.02.79-1.84 1.77-1.84.97 0 1.76.82 1.76 1.84zM34.84 38.82l.06-1.37-.38-.06-.1 1.56c.13-.06.27-.1.42-.13zM35.22 38.94l.47-1.39.37.14-.44 1.32c-.13-.04-.26-.06-.4-.07zM36.14 39.22l.78-1.4.34.21-.79 1.41c-.1-.08-.21-.16-.33-.22zM36.84 39.81l1.06-1.3.3.26-1.13 1.38c-.07-.12-.14-.23-.23-.34zM37.31 40.71l1.2-1 .24.32-1.34 1.11c-.02-.15-.06-.29-.1-.43zM37.45 41.72l1.55-.68.18.36-1.79.82c.03-.16.05-.33.06-.5zM33.53 39.61v-1.99h.39v1.67c-.14.09-.27.2-.39.32z" fill="#000000" fill-rule="nonzero" stroke="none" stroke-linecap="butt" stroke-linejoin="miter"/>
    <path d="M32.16 41.5c0 1.7 1.32 3.07 2.94 3.07 1.63 0 2.95-1.37 2.95-3.07 0-1.69-1.32-3.06-2.95-3.06-1.62 0-2.94 1.37-2.94 3.06z" fill-rule="nonzero" stroke="none" stroke-linecap="butt" stroke-linejoin="miter"/>
    <path clip-rule="evenodd" d="M35.1 43.75c-1.19 0-2.15-1.01-2.15-2.25s.96-2.24 2.15-2.24c1.2 0 2.16 1 2.16 2.24 0 1.24-.96 2.25-2.16 2.25zm0 .82c-1.62 0-2.94-1.37-2.94-3.07 0-1.69 1.32-3.06 2.94-3.06 1.63 0 2.95 1.37 2.95 3.06 0 1.7-1.32 3.07-2.95 3.07z" fill="#000000" stroke="none" stroke-linecap="butt" stroke-linejoin="miter"/>
    <path d="M33.79 42.32c0 1.01.79 1.84 1.77 1.84.97 0 1.76-.83 1.76-1.84 0-1.02-.79-1.84-1.76-1.84-.98 0-1.77.82-1.77 1.84zM32.12 44.48a.905.905 0 00-.6-.05c-.16.05-.31.13-.42.19-.25.14-.41.23-.59.23-.24 0-.45-.09-.73-.22-.13-.06-.29-.13-.45-.17-.16-.04-.36-.06-.57 0-.04.01-.05.01-.06.01h.01c.02 0 .04.01.06.02.01.01.03.02.05.04.03.03.05.06.05.08.01.02.01.03.01.04h-.82c0 .08.02.3.2.47.2.2.48.2.73.12.02 0 .06-.01.13.01.09.02.18.06.32.13l.04.01c.25.12.61.28 1.03.28.4 0 .73-.19.94-.31.02-.01.04-.02.05-.03.12-.06.19-.09.24-.11h.02c.29.14.57.11.79.01.1-.05.2-.12.27-.21.06-.08.14-.21.14-.37h-.81c0-.06.01-.1.02-.12.01-.02.02-.03.02-.03 0-.01.01-.01.01-.01h-.01c0 .01-.01.01-.02.01s-.02 0-.05-.02z" fill="#000000" fill-rule="nonzero" stroke="none" stroke-linecap="butt" stroke-linejoin="miter"/>
    <path clip-rule="evenodd" d="M28.49 47.43c-.09.14-.24.34-.44.44-.01 0-.02.01-.03.01-.19.09-.47.24-.77.24v-.82c.09 0 .2-.05.43-.16l.03-.03c.03-.03.06-.07.09-.12.02-.04.04-.08.06-.11 0-.02.01-.03.01-.03s-.01.01-.01.04h.82c0 .11-.04.22-.06.29-.04.08-.08.17-.13.25z" fill="#000000" stroke="none" stroke-linecap="butt" stroke-linejoin="miter"/>
    <path clip-rule="evenodd" d="M28.86 47.55c.17.08.45.13.79.15.34.02.63.19.85.19v.81c-.18 0-.53-.16-.89-.18-.36-.02-.79-.08-1.11-.24l-.82-.41.37-.73.81.41zM32.54 47.43c.09.14.24.34.44.44.01 0 .02.01.03.01.18.09.47.24.77.24v-.82c-.09 0-.2-.05-.43-.16l-.03-.03a.623.623 0 01-.09-.12c-.02-.04-.04-.08-.06-.11 0-.02-.01-.03-.01-.03s.01.01.01.04h-.82c0 .11.04.22.06.29.04.08.08.17.13.25z" fill="#000000" stroke="none" stroke-linecap="butt" stroke-linejoin="miter"/>
    <path clip-rule="evenodd" d="M32.17 47.55c-.17.08-.45.13-.79.15-.33.02-.66.19-.88.19v.81c.19 0 .56-.16.92-.18.36-.02.79-.08 1.11-.24l.82-.41-.36-.73-.82.41z" fill="#000000" stroke="none" stroke-linecap="butt" stroke-linejoin="miter"/>
</svg>
