<svg width="398" height="65" viewBox="0 0 398 65" fill="none" xmlns="http://www.w3.org/2000/svg">
<path d="M90.4473 40.2461C90.4473 40.6328 90.459 41.0078 90.4824 41.3711C90.5059 41.7227 90.5762 42.0391 90.6934 42.3203C90.8105 42.6016 90.9922 42.8242 91.2383 42.9883C91.4844 43.1523 91.8242 43.2344 92.2578 43.2344C92.8672 43.2344 93.3945 43.1582 93.8398 43.0059C94.2969 42.8418 94.7656 42.6309 95.2461 42.373C95.4336 42.2676 95.6094 42.2148 95.7734 42.2148C96.043 42.2148 96.2539 42.332 96.4062 42.5664C96.5703 42.8008 96.6523 43.0645 96.6523 43.3574C96.6523 43.5566 96.623 43.7207 96.5645 43.8496C96.2246 44.7168 95.7852 45.4961 95.2461 46.1875C94.7188 46.8789 94.1035 47.4648 93.4004 47.9453C92.709 48.4258 91.9473 48.7949 91.1152 49.0527C90.2832 49.3105 89.3926 49.4395 88.4434 49.4395C87.1309 49.4395 86.0059 49.2754 85.0684 48.9473C84.1309 48.6074 83.3398 48.1621 82.6953 47.6113C82.0508 47.0488 81.5352 46.4043 81.1484 45.6777C80.7617 44.9395 80.4629 44.1719 80.252 43.375C80.0527 42.5664 79.918 41.7578 79.8477 40.9492C79.7891 40.1289 79.7598 39.3555 79.7598 38.6289V29.7344H78.8984C78.4648 29.7344 78.125 29.6113 77.8789 29.3652C77.6328 29.1074 77.5098 28.8262 77.5098 28.5215C77.5098 28.1582 77.6738 27.8535 78.002 27.6074C79.373 26.623 80.627 25.6738 81.7637 24.7598C82.9004 23.834 83.8789 23.0078 84.6992 22.2812C85.6602 21.4375 86.5215 20.6465 87.2832 19.9082C87.5879 19.6035 87.8984 19.3809 88.2148 19.2402C88.5312 19.0879 88.8359 19.0117 89.1289 19.0117C89.4922 19.0117 89.7969 19.1348 90.043 19.3809C90.2891 19.627 90.4121 20.0078 90.4121 20.5234V26.2188H94.7012C94.8418 26.2188 95.0059 26.2305 95.1934 26.2539C95.3926 26.2656 95.5801 26.3242 95.7559 26.4297C95.9316 26.5352 96.0781 26.7051 96.1953 26.9395C96.3242 27.1621 96.3887 27.4844 96.3887 27.9062C96.3887 28.3633 96.3301 28.7148 96.2129 28.9609C96.0957 29.207 95.9492 29.3887 95.7734 29.5059C95.5977 29.623 95.4102 29.6934 95.2109 29.7168C95.0234 29.7285 94.8535 29.7344 94.7012 29.7344H90.4121L90.4473 40.2461ZM110.732 42.2324C110.732 42.7129 110.797 43.0879 110.926 43.3574C111.055 43.627 111.213 43.832 111.4 43.9727C111.6 44.1016 111.811 44.1953 112.033 44.2539C112.256 44.3008 112.461 44.3535 112.648 44.4121C112.848 44.4707 113.012 44.5586 113.141 44.6758C113.27 44.7812 113.334 44.9629 113.334 45.2207C113.334 46.5566 112.643 47.5234 111.26 48.1211C109.877 48.707 107.879 49 105.266 49C104 49 102.881 48.9297 101.908 48.7891C100.936 48.6484 100.115 48.4258 99.4473 48.1211C98.7793 47.8047 98.2695 47.4121 97.918 46.9434C97.5781 46.4629 97.4082 45.8887 97.4082 45.2207C97.4082 44.9629 97.4727 44.7812 97.6016 44.6758C97.7305 44.5586 97.8887 44.4707 98.0762 44.4121C98.2637 44.3535 98.4688 44.3008 98.6914 44.2539C98.9141 44.207 99.1191 44.1191 99.3066 43.9902C99.4941 43.8496 99.6523 43.6562 99.7812 43.4102C99.9102 43.1523 99.9746 42.7832 99.9746 42.3027V32.916C99.9746 32.4473 99.9102 32.084 99.7812 31.8262C99.6523 31.5684 99.4941 31.375 99.3066 31.2461C99.1191 31.1055 98.9141 31.0117 98.6914 30.9648C98.4688 30.918 98.2637 30.8652 98.0762 30.8066C97.8887 30.748 97.7305 30.666 97.6016 30.5605C97.4727 30.4434 97.4082 30.2559 97.4082 29.998C97.4082 29.3301 97.5781 28.7617 97.918 28.293C98.2695 27.8125 98.7793 27.4199 99.4473 27.1152C100.115 26.7988 100.936 26.5703 101.908 26.4297C102.881 26.2891 104 26.2188 105.266 26.2188C106.426 26.2188 107.352 26.3359 108.043 26.5703C108.746 26.793 109.297 27.127 109.695 27.5723C110.023 27.3613 110.363 27.1621 110.715 26.9746C111.066 26.7754 111.441 26.6055 111.84 26.4648C112.238 26.3125 112.672 26.1953 113.141 26.1133C113.609 26.0312 114.125 25.9902 114.688 25.9902C115.391 25.9902 116.064 26.0664 116.709 26.2188C117.365 26.3594 117.945 26.5996 118.449 26.9395C118.953 27.2676 119.352 27.7012 119.645 28.2402C119.949 28.7676 120.102 29.4238 120.102 30.209C120.102 30.7246 120.014 31.2285 119.838 31.7207C119.662 32.2129 119.398 32.6523 119.047 33.0391C118.707 33.4141 118.273 33.7188 117.746 33.9531C117.23 34.1875 116.633 34.3047 115.953 34.3047C115.273 34.3047 114.74 34.2051 114.354 34.0059C113.967 33.8066 113.668 33.5605 113.457 33.2676C113.246 32.9746 113.088 32.6582 112.982 32.3184C112.889 31.9668 112.783 31.6445 112.666 31.3516C112.561 31.0586 112.414 30.8125 112.227 30.6133C112.051 30.4141 111.781 30.3145 111.418 30.3145C111.055 30.3145 110.814 30.3613 110.697 30.4551C110.58 30.5371 110.521 30.6602 110.521 30.8242C110.521 31.0352 110.562 31.3047 110.645 31.6328C110.727 31.9609 110.768 32.3594 110.768 32.8281L110.732 42.2324ZM132.74 45.3965C133.127 45.3965 133.438 45.3379 133.672 45.2207C133.918 45.0918 134.105 44.916 134.234 44.6934C134.363 44.459 134.445 44.1777 134.48 43.8496C134.527 43.5098 134.551 43.1289 134.551 42.707C134.551 42.3438 134.545 41.8809 134.533 41.3184C134.521 40.7559 134.51 40.2051 134.498 39.666C134.475 39.0332 134.457 38.377 134.445 37.6973C134.281 37.6738 134.123 37.6562 133.971 37.6445C133.83 37.6211 133.689 37.6094 133.549 37.6094C132.951 37.6094 132.447 37.7324 132.037 37.9785C131.639 38.2129 131.316 38.5469 131.07 38.9805C130.824 39.4023 130.648 39.9062 130.543 40.4922C130.449 41.0664 130.402 41.6934 130.402 42.373C130.402 42.7832 130.426 43.1758 130.473 43.5508C130.52 43.9141 130.625 44.2363 130.789 44.5176C130.953 44.7871 131.188 45.0039 131.492 45.168C131.809 45.3203 132.225 45.3965 132.74 45.3965ZM141.213 49C140.615 49 140.018 48.9707 139.42 48.9121C138.834 48.8418 138.271 48.707 137.732 48.5078C137.205 48.3086 136.719 48.0215 136.273 47.6465C135.828 47.2715 135.447 46.7734 135.131 46.1523C134.896 46.7031 134.516 47.1836 133.988 47.5938C133.473 48.0039 132.881 48.3496 132.213 48.6309C131.557 48.9004 130.859 49.0996 130.121 49.2285C129.395 49.3691 128.697 49.4395 128.029 49.4395C126.846 49.4395 125.809 49.2988 124.918 49.0176C124.027 48.7363 123.277 48.3379 122.668 47.8223C122.059 47.2949 121.602 46.668 121.297 45.9414C120.992 45.2148 120.84 44.4004 120.84 43.498C120.84 42.4316 121.016 41.4238 121.367 40.4746C121.73 39.5137 122.34 38.6758 123.195 37.9609C124.062 37.2461 125.217 36.6836 126.658 36.2734C128.1 35.8516 129.904 35.6406 132.072 35.6406H134.48C134.48 34.3398 134.434 33.2617 134.34 32.4062C134.258 31.5508 134.123 30.8711 133.936 30.3672C133.748 29.8633 133.514 29.5117 133.232 29.3125C132.951 29.1133 132.611 29.0137 132.213 29.0137C131.768 29.0137 131.393 29.1484 131.088 29.418C130.795 29.6875 130.555 30.0801 130.367 30.5957C130.191 31.0996 130.062 31.7148 129.98 32.4414C129.91 33.1562 129.875 33.9707 129.875 34.8848C129.371 34.8848 128.838 34.8789 128.275 34.8672C127.725 34.8438 127.174 34.7969 126.623 34.7266C126.084 34.6562 125.568 34.5508 125.076 34.4102C124.596 34.2578 124.168 34.0586 123.793 33.8125C123.418 33.5547 123.119 33.2324 122.896 32.8457C122.674 32.459 122.562 31.9902 122.562 31.4395C122.562 30.666 122.762 29.9336 123.16 29.2422C123.57 28.5508 124.191 27.9473 125.023 27.4316C125.867 26.9043 126.934 26.4883 128.223 26.1836C129.512 25.8672 131.047 25.709 132.828 25.709C134.902 25.709 136.689 25.9199 138.189 26.3418C139.689 26.7637 140.92 27.3965 141.881 28.2402C142.854 29.084 143.568 30.1504 144.025 31.4395C144.494 32.7168 144.729 34.2168 144.729 35.9395V42.1621C144.729 42.666 144.793 43.0586 144.922 43.3398C145.062 43.6211 145.227 43.8379 145.414 43.9902C145.613 44.1309 145.83 44.2305 146.064 44.2891C146.299 44.3477 146.51 44.4121 146.697 44.4824C146.896 44.541 147.061 44.6289 147.189 44.7461C147.33 44.8516 147.4 45.0332 147.4 45.291C147.4 46.4629 146.873 47.377 145.818 48.0332C144.775 48.6777 143.24 49 141.213 49ZM161.814 30.3145C161.814 30.0449 161.568 29.7988 161.076 29.5762C160.584 29.3535 159.834 29.2422 158.826 29.2422C158.311 29.2422 157.889 29.2715 157.561 29.3301C157.244 29.3887 156.992 29.4707 156.805 29.5762C156.617 29.6816 156.488 29.8105 156.418 29.9629C156.359 30.1152 156.33 30.291 156.33 30.4902C156.33 30.877 156.518 31.2168 156.893 31.5098C157.268 31.791 157.76 32.0664 158.369 32.3359C158.99 32.6055 159.693 32.875 160.479 33.1445C161.264 33.4141 162.066 33.7246 162.887 34.0762C163.707 34.416 164.51 34.8145 165.295 35.2715C166.08 35.7168 166.777 36.25 167.387 36.8711C168.008 37.4805 168.506 38.1953 168.881 39.0156C169.256 39.8359 169.443 40.7852 169.443 41.8633C169.443 43.1875 169.139 44.3301 168.529 45.291C167.932 46.2402 167.141 47.0254 166.156 47.6465C165.172 48.2559 164.047 48.707 162.781 49C161.527 49.293 160.244 49.4395 158.932 49.4395C157.607 49.4395 156.307 49.2988 155.029 49.0176C153.764 48.748 152.633 48.3672 151.637 47.875C150.641 47.3828 149.838 46.791 149.229 46.0996C148.619 45.4082 148.314 44.6465 148.314 43.8145C148.314 43.3223 148.391 42.8945 148.543 42.5312C148.695 42.1562 148.895 41.8516 149.141 41.6172C149.398 41.3711 149.691 41.1895 150.02 41.0723C150.348 40.9551 150.688 40.8965 151.039 40.8965C151.602 40.8965 152.064 40.9609 152.428 41.0898C152.791 41.2188 153.084 41.3887 153.307 41.5996C153.541 41.7988 153.729 42.0332 153.869 42.3027C154.01 42.5605 154.145 42.8301 154.273 43.1113C154.402 43.3926 154.543 43.668 154.695 43.9375C154.848 44.1953 155.053 44.4297 155.311 44.6406C155.568 44.8398 155.896 45.0039 156.295 45.1328C156.705 45.2617 157.221 45.3262 157.842 45.3262C158.838 45.3262 159.57 45.2383 160.039 45.0625C160.52 44.8867 160.76 44.541 160.76 44.0254C160.76 43.8379 160.584 43.6562 160.232 43.4805C159.893 43.293 159.441 43.0996 158.879 42.9004C158.316 42.7012 157.672 42.4785 156.945 42.2324C156.219 41.9863 155.48 41.6992 154.73 41.3711C153.98 41.0312 153.242 40.6445 152.516 40.2109C151.789 39.7656 151.145 39.2559 150.582 38.6816C150.02 38.0957 149.562 37.4277 149.211 36.6777C148.871 35.9277 148.701 35.0781 148.701 34.1289C148.701 33.0859 148.83 32.1543 149.088 31.334C149.346 30.502 149.703 29.7754 150.16 29.1543C150.629 28.5215 151.186 27.9883 151.83 27.5547C152.475 27.1211 153.178 26.7695 153.939 26.5C154.701 26.2188 155.51 26.0195 156.365 25.9023C157.221 25.7734 158.1 25.709 159.002 25.709C160.561 25.709 161.896 25.8555 163.01 26.1484C164.123 26.4414 165.037 26.8164 165.752 27.2734C166.479 27.7305 167.012 28.2461 167.352 28.8203C167.691 29.3828 167.861 29.9395 167.861 30.4902C167.861 30.877 167.779 31.2461 167.615 31.5977C167.463 31.9375 167.234 32.2363 166.93 32.4941C166.625 32.752 166.256 32.957 165.822 33.1094C165.389 33.2617 164.891 33.3379 164.328 33.3379C163.695 33.3379 163.174 33.3027 162.764 33.2324C162.365 33.1621 162.043 33.0684 161.797 32.9512C161.562 32.8223 161.398 32.6758 161.305 32.5117C161.211 32.3359 161.164 32.1426 161.164 31.9316C161.164 31.7207 161.199 31.5625 161.27 31.457C161.34 31.3516 161.41 31.252 161.48 31.1582C161.562 31.0527 161.639 30.9414 161.709 30.8242C161.779 30.707 161.814 30.5371 161.814 30.3145ZM184.174 28.7676C184.443 28.4746 184.801 28.1523 185.246 27.8008C185.691 27.4492 186.242 27.1211 186.898 26.8164C187.555 26.5 188.316 26.2363 189.184 26.0254C190.062 25.8145 191.07 25.709 192.207 25.709C193.52 25.709 194.645 25.8789 195.582 26.2188C196.52 26.5469 197.311 26.9922 197.955 27.5547C198.611 28.1172 199.133 28.7676 199.52 29.5059C199.918 30.2324 200.223 31 200.434 31.8086C200.645 32.6055 200.785 33.4141 200.855 34.2344C200.926 35.043 200.961 35.8105 200.961 36.5371V42.0918C200.961 42.5957 201.025 42.9883 201.154 43.2695C201.283 43.5508 201.447 43.7676 201.646 43.9199C201.846 44.0605 202.057 44.1602 202.279 44.2188C202.514 44.2773 202.73 44.3418 202.93 44.4121C203.129 44.4707 203.293 44.5586 203.422 44.6758C203.551 44.7812 203.615 44.9629 203.615 45.2207C203.615 46.5566 202.924 47.5234 201.541 48.1211C200.17 48.707 198.178 49 195.564 49C194.299 49 193.18 48.9297 192.207 48.7891C191.234 48.6484 190.414 48.4258 189.746 48.1211C189.078 47.8047 188.568 47.4121 188.217 46.9434C187.877 46.4629 187.707 45.8887 187.707 45.2207C187.707 44.9629 187.771 44.7812 187.9 44.6758C188.029 44.5586 188.193 44.4707 188.393 44.4121C188.592 44.3418 188.803 44.2832 189.025 44.2363C189.248 44.1777 189.459 44.0781 189.658 43.9375C189.857 43.7969 190.021 43.5918 190.15 43.3223C190.279 43.0527 190.344 42.666 190.344 42.1621V34.9902C190.344 34.2402 190.291 33.5664 190.186 32.9688C190.08 32.3711 189.898 31.873 189.641 31.4746C189.383 31.0645 189.031 30.7539 188.586 30.543C188.152 30.3203 187.607 30.209 186.951 30.209C186.611 30.209 186.301 30.2559 186.02 30.3496C185.738 30.4434 185.475 30.5605 185.229 30.7012C184.994 30.8301 184.783 30.9707 184.596 31.123C184.42 31.2754 184.268 31.416 184.139 31.5449V42.2324C184.139 42.7129 184.203 43.0879 184.332 43.3574C184.461 43.627 184.619 43.832 184.807 43.9727C185.006 44.1016 185.217 44.1953 185.439 44.2539C185.662 44.3008 185.867 44.3535 186.055 44.4121C186.254 44.4707 186.418 44.5586 186.547 44.6758C186.676 44.7812 186.74 44.9629 186.74 45.2207C186.74 46.5566 186.049 47.5234 184.666 48.1211C183.283 48.707 181.285 49 178.672 49C176.152 49 174.213 48.707 172.854 48.1211C171.506 47.5234 170.832 46.5566 170.832 45.2207C170.832 44.9629 170.891 44.7812 171.008 44.6758C171.137 44.5586 171.295 44.4707 171.482 44.4121C171.682 44.3535 171.887 44.3008 172.098 44.2539C172.32 44.207 172.525 44.1191 172.713 43.9902C172.912 43.8496 173.07 43.6562 173.188 43.4102C173.316 43.1523 173.381 42.7832 173.381 42.3027V22.5449C173.381 22.0645 173.316 21.7012 173.188 21.4551C173.07 21.1973 172.912 21.0039 172.713 20.875C172.525 20.7344 172.32 20.6406 172.098 20.5938C171.887 20.5469 171.682 20.4941 171.482 20.4355C171.295 20.377 171.137 20.2949 171.008 20.1895C170.891 20.0723 170.832 19.8848 170.832 19.627C170.832 18.291 171.506 17.3301 172.854 16.7441C174.213 16.1465 176.152 15.8477 178.672 15.8477C179.938 15.8477 180.934 15.9121 181.66 16.041C182.398 16.1699 182.955 16.3926 183.33 16.709C183.705 17.0137 183.945 17.4297 184.051 17.957C184.156 18.4844 184.209 19.1465 184.209 19.9434L184.174 28.7676ZM231.934 27.8711C232.133 27.7422 232.391 27.5605 232.707 27.3262C233.035 27.0801 233.516 26.8398 234.148 26.6055C234.781 26.3594 235.619 26.1484 236.662 25.9727C237.705 25.7969 239.047 25.709 240.688 25.709C241.918 25.709 242.99 25.8555 243.904 26.1484C244.818 26.4414 245.598 26.8398 246.242 27.3438C246.898 27.8477 247.438 28.4453 247.859 29.1367C248.281 29.8164 248.615 30.5547 248.861 31.3516C249.107 32.1367 249.277 32.957 249.371 33.8125C249.465 34.668 249.512 35.5176 249.512 36.3613V36.5371C249.5 37.9316 249.488 39.0098 249.477 39.7715C249.477 40.5215 249.477 41.0723 249.477 41.4238C249.477 41.7754 249.477 41.9863 249.477 42.0566C249.477 42.1152 249.477 42.1445 249.477 42.1445C249.477 42.6367 249.541 43.0234 249.67 43.3047C249.799 43.5742 249.957 43.7852 250.145 43.9375C250.344 44.0781 250.555 44.1777 250.777 44.2363C251.012 44.2832 251.223 44.3418 251.41 44.4121C251.609 44.4707 251.773 44.5586 251.902 44.6758C252.031 44.7812 252.096 44.9629 252.096 45.2207C252.096 45.8887 251.926 46.4629 251.586 46.9434C251.258 47.4121 250.771 47.8047 250.127 48.1211C249.482 48.4258 248.686 48.6484 247.736 48.7891C246.799 48.9297 245.721 49 244.502 49C243.318 49 242.264 48.9297 241.338 48.7891C240.424 48.6484 239.65 48.4258 239.018 48.1211C238.385 47.8047 237.904 47.4121 237.576 46.9434C237.248 46.4629 237.084 45.8887 237.084 45.2207C237.084 44.9629 237.125 44.7812 237.207 44.6758C237.301 44.5586 237.412 44.4707 237.541 44.4121C237.67 44.3535 237.811 44.3008 237.963 44.2539C238.115 44.207 238.256 44.1191 238.385 43.9902C238.514 43.8496 238.619 43.6562 238.701 43.4102C238.795 43.1523 238.842 42.7832 238.842 42.3027V34.7441C238.842 34.0293 238.795 33.3906 238.701 32.8281C238.619 32.2656 238.479 31.791 238.279 31.4043C238.08 31.0176 237.811 30.7246 237.471 30.5254C237.143 30.3145 236.727 30.209 236.223 30.209C235.449 30.209 234.887 30.4551 234.535 30.9473C234.195 31.4277 234.025 32.0547 234.025 32.8281V42.0918C234.025 42.5957 234.072 42.9883 234.166 43.2695C234.26 43.5508 234.377 43.7676 234.518 43.9199C234.67 44.0605 234.828 44.1602 234.992 44.2188C235.168 44.2773 235.326 44.3418 235.467 44.4121C235.619 44.4707 235.742 44.5586 235.836 44.6758C235.93 44.7812 235.977 44.9629 235.977 45.2207C235.977 45.8887 235.842 46.4629 235.572 46.9434C235.314 47.4121 234.904 47.8047 234.342 48.1211C233.791 48.4258 233.076 48.6484 232.197 48.7891C231.33 48.9297 230.281 49 229.051 49C227.867 49 226.812 48.9297 225.887 48.7891C224.973 48.6484 224.199 48.4258 223.566 48.1211C222.934 47.8047 222.453 47.4121 222.125 46.9434C221.797 46.4629 221.633 45.8887 221.633 45.2207C221.633 44.9629 221.674 44.7812 221.756 44.6758C221.85 44.5586 221.961 44.4707 222.09 44.4121C222.219 44.3535 222.359 44.3008 222.512 44.2539C222.676 44.207 222.822 44.1191 222.951 43.9902C223.08 43.8496 223.186 43.6562 223.268 43.4102C223.361 43.1523 223.408 42.7832 223.408 42.3027V34.7441C223.408 33.3145 223.232 32.207 222.881 31.4219C222.541 30.6367 221.926 30.2441 221.035 30.2441C220.684 30.2441 220.35 30.3086 220.033 30.4375C219.717 30.5664 219.436 30.7539 219.189 31C218.943 31.2344 218.75 31.5156 218.609 31.8438C218.469 32.1719 218.398 32.5293 218.398 32.916V42.2324C218.398 42.7129 218.445 43.0879 218.539 43.3574C218.645 43.627 218.773 43.832 218.926 43.9727C219.078 44.1016 219.242 44.1953 219.418 44.2539C219.605 44.3008 219.775 44.3535 219.928 44.4121C220.08 44.4707 220.203 44.5586 220.297 44.6758C220.402 44.7812 220.455 44.9629 220.455 45.2207C220.455 46.5566 219.787 47.5234 218.451 48.1211C217.127 48.707 215.217 49 212.721 49C211.514 49 210.436 48.9297 209.486 48.7891C208.537 48.6484 207.734 48.4258 207.078 48.1211C206.434 47.8047 205.936 47.4121 205.584 46.9434C205.244 46.4629 205.074 45.8887 205.074 45.2207C205.074 44.9629 205.139 44.7812 205.268 44.6758C205.396 44.5586 205.555 44.4707 205.742 44.4121C205.93 44.3535 206.135 44.3008 206.357 44.2539C206.58 44.207 206.785 44.1191 206.973 43.9902C207.16 43.8496 207.318 43.6562 207.447 43.4102C207.576 43.1523 207.641 42.7832 207.641 42.3027V32.916C207.641 32.4473 207.576 32.084 207.447 31.8262C207.318 31.5684 207.16 31.375 206.973 31.2461C206.785 31.1055 206.58 31.0117 206.357 30.9648C206.135 30.918 205.93 30.8652 205.742 30.8066C205.555 30.748 205.396 30.666 205.268 30.5605C205.139 30.4434 205.074 30.2559 205.074 29.998C205.074 29.3301 205.244 28.7617 205.584 28.293C205.924 27.8125 206.416 27.4199 207.061 27.1152C207.717 26.7988 208.514 26.5703 209.451 26.4297C210.389 26.2891 211.449 26.2188 212.633 26.2188C213.172 26.2188 213.658 26.248 214.092 26.3066C214.525 26.3535 214.906 26.4238 215.234 26.5176C215.574 26.5996 215.867 26.6992 216.113 26.8164C216.359 26.9219 216.57 27.0332 216.746 27.1504C217.156 27.4316 217.443 27.7422 217.607 28.082C218.182 27.6484 218.873 27.2559 219.682 26.9043C220.373 26.5996 221.217 26.3242 222.213 26.0781C223.209 25.832 224.375 25.709 225.711 25.709C227.094 25.709 228.318 25.9082 229.385 26.3066C230.451 26.6934 231.301 27.2148 231.934 27.8711ZM265.438 49.4395C264.043 49.4395 262.76 49.2754 261.588 48.9473C260.428 48.6191 259.379 48.1738 258.441 47.6113C257.516 47.0371 256.701 46.3633 255.998 45.5898C255.295 44.8164 254.709 43.9844 254.24 43.0938C253.771 42.1914 253.42 41.2539 253.186 40.2812C252.951 39.3086 252.834 38.3359 252.834 37.3633C252.834 36.3672 252.957 35.3887 253.203 34.4277C253.461 33.4551 253.842 32.5352 254.346 31.668C254.861 30.8008 255.5 30.0039 256.262 29.2773C257.023 28.5508 257.914 27.9238 258.934 27.3965C259.965 26.8691 261.119 26.459 262.396 26.166C263.686 25.8613 265.104 25.709 266.65 25.709C268.01 25.709 269.252 25.8613 270.377 26.166C271.514 26.4707 272.539 26.8926 273.453 27.4316C274.367 27.959 275.164 28.5859 275.844 29.3125C276.535 30.0391 277.109 30.8301 277.566 31.6855C278.023 32.541 278.363 33.4434 278.586 34.3926C278.82 35.3418 278.938 36.2969 278.938 37.2578C278.938 38.2539 278.814 39.25 278.568 40.2461C278.322 41.2422 277.947 42.1914 277.443 43.0938C276.951 43.9961 276.33 44.834 275.58 45.6074C274.83 46.3809 273.951 47.0547 272.943 47.6289C271.947 48.1914 270.822 48.6367 269.568 48.9648C268.314 49.2812 266.938 49.4395 265.438 49.4395ZM266.229 44.9395C266.615 44.9395 266.938 44.8281 267.195 44.6055C267.465 44.3711 267.682 44.0371 267.846 43.6035C268.01 43.1699 268.127 42.6484 268.197 42.0391C268.268 41.418 268.303 40.7266 268.303 39.9648C268.303 39.2969 268.297 38.5938 268.285 37.8555C268.273 37.1055 268.244 36.373 268.197 35.6582C268.15 34.9316 268.074 34.2402 267.969 33.584C267.863 32.9277 267.711 32.3477 267.512 31.8438C267.324 31.3398 267.084 30.9414 266.791 30.6484C266.498 30.3555 266.141 30.209 265.719 30.209C265.309 30.209 264.957 30.3262 264.664 30.5605C264.383 30.7832 264.148 31.0996 263.961 31.5098C263.773 31.9199 263.633 32.4121 263.539 32.9863C263.457 33.5605 263.416 34.1934 263.416 34.8848C263.416 35.5293 263.428 36.2266 263.451 36.9766C263.475 37.7266 263.521 38.4766 263.592 39.2266C263.662 39.9648 263.762 40.6797 263.891 41.3711C264.031 42.0625 264.201 42.6719 264.4 43.1992C264.611 43.7266 264.863 44.1484 265.156 44.4648C265.461 44.7812 265.818 44.9395 266.229 44.9395ZM293.879 42.2324C293.879 42.7129 293.943 43.0879 294.072 43.3574C294.201 43.627 294.359 43.832 294.547 43.9727C294.746 44.1016 294.957 44.1953 295.18 44.2539C295.402 44.3008 295.607 44.3535 295.795 44.4121C295.994 44.4707 296.158 44.5586 296.287 44.6758C296.416 44.7812 296.48 44.9629 296.48 45.2207C296.48 46.5566 295.789 47.5234 294.406 48.1211C293.023 48.707 291.025 49 288.412 49C287.146 49 286.027 48.9297 285.055 48.7891C284.082 48.6484 283.262 48.4258 282.594 48.1211C281.926 47.8047 281.416 47.4121 281.064 46.9434C280.725 46.4629 280.555 45.8887 280.555 45.2207C280.555 44.9629 280.619 44.7812 280.748 44.6758C280.877 44.5586 281.035 44.4707 281.223 44.4121C281.41 44.3535 281.615 44.3008 281.838 44.2539C282.061 44.207 282.266 44.1191 282.453 43.9902C282.641 43.8496 282.799 43.6562 282.928 43.4102C283.057 43.1523 283.121 42.7832 283.121 42.3027V32.916C283.121 32.4473 283.057 32.084 282.928 31.8262C282.799 31.5684 282.641 31.375 282.453 31.2461C282.266 31.1055 282.061 31.0117 281.838 30.9648C281.615 30.918 281.41 30.8652 281.223 30.8066C281.035 30.748 280.877 30.666 280.748 30.5605C280.619 30.4434 280.555 30.2559 280.555 29.998C280.555 29.3301 280.725 28.7617 281.064 28.293C281.416 27.8125 281.926 27.4199 282.594 27.1152C283.262 26.7988 284.082 26.5703 285.055 26.4297C286.027 26.2891 287.146 26.2188 288.412 26.2188C289.561 26.2188 290.475 26.3184 291.154 26.5176C291.834 26.7051 292.361 26.916 292.736 27.1504C293.17 27.4316 293.469 27.7422 293.633 28.082C294.242 27.6484 294.969 27.2559 295.812 26.9043C296.539 26.5996 297.424 26.3242 298.467 26.0781C299.521 25.832 300.752 25.709 302.158 25.709C303.447 25.709 304.555 25.873 305.48 26.2012C306.418 26.5176 307.209 26.9512 307.854 27.502C308.51 28.041 309.037 28.6738 309.436 29.4004C309.834 30.1152 310.139 30.8652 310.35 31.6504C310.572 32.4355 310.719 33.2324 310.789 34.041C310.871 34.8379 310.912 35.5996 310.912 36.3262V42.1445C310.912 42.6367 310.977 43.0234 311.105 43.3047C311.234 43.5742 311.398 43.7852 311.598 43.9375C311.797 44.0781 312.008 44.1777 312.23 44.2363C312.465 44.2832 312.682 44.3418 312.881 44.4121C313.08 44.4707 313.244 44.5586 313.373 44.6758C313.502 44.7812 313.566 44.9629 313.566 45.2207C313.566 46.5566 312.875 47.5234 311.492 48.1211C310.121 48.707 308.129 49 305.516 49C304.25 49 303.131 48.9297 302.158 48.7891C301.186 48.6484 300.365 48.4258 299.697 48.1211C299.029 47.8047 298.52 47.4121 298.168 46.9434C297.828 46.4629 297.658 45.8887 297.658 45.2207C297.658 44.9629 297.723 44.7812 297.852 44.6758C297.98 44.5586 298.145 44.4707 298.344 44.4121C298.543 44.3535 298.754 44.3008 298.977 44.2539C299.199 44.207 299.41 44.1191 299.609 43.9902C299.809 43.8496 299.973 43.6562 300.102 43.4102C300.23 43.1523 300.295 42.7832 300.295 42.3027V34.7969C300.295 34.0703 300.236 33.4258 300.119 32.8633C300.014 32.2891 299.826 31.8086 299.557 31.4219C299.299 31.0234 298.953 30.7246 298.52 30.5254C298.086 30.3145 297.547 30.209 296.902 30.209C296.492 30.209 296.105 30.2793 295.742 30.4199C295.379 30.5488 295.062 30.7363 294.793 30.9824C294.523 31.2168 294.307 31.5039 294.143 31.8438C293.99 32.1719 293.914 32.5293 293.914 32.916L293.879 42.2324ZM328.877 25.709C330.225 25.709 331.426 25.8438 332.48 26.1133C333.535 26.3828 334.449 26.7637 335.223 27.2559C335.551 27.0449 335.914 26.8457 336.312 26.6582C336.723 26.4707 337.145 26.3066 337.578 26.166C338.023 26.0254 338.475 25.9141 338.932 25.832C339.389 25.75 339.834 25.709 340.268 25.709C340.748 25.709 341.199 25.7676 341.621 25.8848C342.055 25.9902 342.43 26.166 342.746 26.4121C343.062 26.6465 343.314 26.957 343.502 27.3438C343.689 27.7305 343.783 28.2051 343.783 28.7676C343.783 29.1309 343.719 29.4883 343.59 29.8398C343.473 30.1797 343.291 30.4902 343.045 30.7715C342.799 31.041 342.488 31.2637 342.113 31.4395C341.75 31.6035 341.322 31.6855 340.83 31.6855C340.338 31.6855 339.951 31.6152 339.67 31.4746C339.4 31.334 339.189 31.1582 339.037 30.9473C338.885 30.7363 338.773 30.5078 338.703 30.2617C338.633 30.0156 338.557 29.7871 338.475 29.5762C338.393 29.3652 338.287 29.1895 338.158 29.0488C338.041 28.9082 337.854 28.8379 337.596 28.8379C337.537 28.8379 337.473 28.8438 337.402 28.8555C337.332 28.8672 337.25 28.8848 337.156 28.9082C337.684 29.5293 338.076 30.1973 338.334 30.9121C338.592 31.627 338.721 32.3535 338.721 33.0918C338.721 34.1465 338.475 35.1895 337.982 36.2207C337.502 37.2402 336.781 38.1602 335.82 38.9805C334.871 39.8008 333.688 40.4629 332.27 40.9668C330.863 41.4707 329.24 41.7227 327.4 41.7227C326.463 41.7227 325.531 41.6523 324.605 41.5117V41.9512C324.605 42.2441 324.834 42.4609 325.291 42.6016C325.76 42.7305 326.369 42.8359 327.119 42.918C327.869 43 328.725 43.082 329.686 43.1641C330.658 43.2344 331.643 43.3516 332.639 43.5156C333.646 43.6797 334.631 43.9199 335.592 44.2363C336.564 44.5527 337.426 44.9922 338.176 45.5547C338.926 46.1055 339.529 46.8086 339.986 47.6641C340.455 48.5195 340.689 49.5742 340.689 50.8281C340.689 51.8477 340.537 52.7676 340.232 53.5879C339.928 54.4082 339.506 55.1406 338.967 55.7852C338.428 56.4297 337.789 56.9863 337.051 57.4551C336.312 57.9238 335.51 58.3105 334.643 58.6152C333.775 58.9199 332.855 59.1426 331.883 59.2832C330.922 59.4355 329.949 59.5117 328.965 59.5117C327.922 59.5117 326.885 59.459 325.854 59.3535C324.822 59.2598 323.838 59.0898 322.9 58.8438C321.963 58.6094 321.09 58.2988 320.281 57.9121C319.484 57.5371 318.787 57.0625 318.189 56.4883C317.604 55.9258 317.141 55.2578 316.801 54.4844C316.461 53.7227 316.291 52.8438 316.291 51.8477C316.291 51.1914 316.396 50.6289 316.607 50.1602C316.818 49.7031 317.094 49.3281 317.434 49.0352C316.836 48.6016 316.361 48.0625 316.01 47.418C315.67 46.7617 315.5 45.959 315.5 45.0098C315.5 44.3652 315.611 43.7852 315.834 43.2695C316.057 42.7539 316.373 42.2969 316.783 41.8984C317.193 41.5 317.686 41.1602 318.26 40.8789C318.846 40.5859 319.496 40.3398 320.211 40.1406C319.555 39.8125 318.957 39.4258 318.418 38.9805C317.891 38.5352 317.434 38.0371 317.047 37.4863C316.672 36.9355 316.379 36.332 316.168 35.6758C315.957 35.0078 315.852 34.2871 315.852 33.5137C315.852 32.541 316.115 31.5918 316.643 30.666C317.17 29.7285 317.967 28.8965 319.033 28.1699C320.111 27.4316 321.465 26.8398 323.094 26.3945C324.734 25.9375 326.662 25.709 328.877 25.709ZM331.83 52.3398C331.83 52.0352 331.689 51.7949 331.408 51.6191C331.139 51.4434 330.764 51.3086 330.283 51.2148C329.814 51.1211 329.258 51.0566 328.613 51.0215C327.98 50.9863 327.295 50.9512 326.557 50.916C325.83 50.8926 325.074 50.8574 324.289 50.8105C323.516 50.7637 322.754 50.6875 322.004 50.582C322.016 50.8867 322.027 51.1914 322.039 51.4961C322.051 51.8125 322.109 52.1172 322.215 52.4102C322.32 52.7148 322.484 52.9961 322.707 53.2539C322.941 53.5117 323.275 53.7402 323.709 53.9395C324.154 54.1387 324.711 54.291 325.379 54.3965C326.059 54.5137 326.902 54.5723 327.91 54.5723C328.777 54.5723 329.469 54.502 329.984 54.3613C330.5 54.2207 330.893 54.0391 331.162 53.8164C331.443 53.5938 331.625 53.3477 331.707 53.0781C331.789 52.8203 331.83 52.5742 331.83 52.3398ZM327.77 30.209C327.348 30.209 326.984 30.2852 326.68 30.4375C326.387 30.5781 326.146 30.7715 325.959 31.0176C325.783 31.2637 325.648 31.5508 325.555 31.8789C325.473 32.207 325.432 32.5527 325.432 32.916C325.432 33.3848 325.496 33.8594 325.625 34.3398C325.754 34.8086 325.93 35.2363 326.152 35.623C326.387 36.0098 326.656 36.3262 326.961 36.5723C327.277 36.8184 327.617 36.9414 327.98 36.9414C328.379 36.9414 328.73 36.8535 329.035 36.6777C329.34 36.4902 329.592 36.25 329.791 35.957C329.99 35.6523 330.137 35.3125 330.23 34.9375C330.336 34.5508 330.389 34.1523 330.389 33.7422C330.389 33.3086 330.33 32.8809 330.213 32.459C330.107 32.0371 329.943 31.6621 329.721 31.334C329.498 30.9941 329.223 30.7246 328.895 30.5254C328.578 30.3145 328.203 30.209 327.77 30.209ZM356.721 30.209C356.346 30.209 355.994 30.2969 355.666 30.4727C355.338 30.6367 355.051 30.8945 354.805 31.2461C354.57 31.5977 354.383 32.0488 354.242 32.5996C354.113 33.1387 354.049 33.7832 354.049 34.5332H359.656C359.656 33.7129 359.592 33.0273 359.463 32.4766C359.334 31.9141 359.146 31.4688 358.9 31.1406C358.654 30.8008 358.344 30.5605 357.969 30.4199C357.605 30.2793 357.189 30.209 356.721 30.209ZM355.42 25.709C356.99 25.709 358.402 25.9434 359.656 26.4121C360.922 26.8809 361.994 27.5254 362.873 28.3457C363.764 29.166 364.443 30.1328 364.912 31.2461C365.393 32.3477 365.633 33.5371 365.633 34.8145C365.633 35.3418 365.557 35.752 365.404 36.0449C365.264 36.3379 365.059 36.5547 364.789 36.6953C364.52 36.8359 364.186 36.9238 363.787 36.959C363.389 36.9941 362.938 37.0117 362.434 37.0117H353.979C353.979 38.3008 354.107 39.3496 354.365 40.1582C354.635 40.9551 355.004 41.5762 355.473 42.0215C355.941 42.4668 356.504 42.7715 357.16 42.9355C357.816 43.0879 358.543 43.1641 359.34 43.1641C359.762 43.1641 360.195 43.123 360.641 43.041C361.098 42.959 361.531 42.8535 361.941 42.7246C362.363 42.5957 362.75 42.4609 363.102 42.3203C363.453 42.1797 363.746 42.0449 363.98 41.916C364.168 41.8105 364.35 41.7578 364.525 41.7578C364.795 41.7578 365.006 41.875 365.158 42.1094C365.311 42.332 365.387 42.584 365.387 42.8652C365.387 42.959 365.381 43.0469 365.369 43.1289C365.357 43.2109 365.334 43.293 365.299 43.375C364.959 44.2422 364.496 45.0449 363.91 45.7832C363.324 46.5215 362.609 47.166 361.766 47.7168C360.934 48.2559 359.967 48.6777 358.865 48.9824C357.764 49.2871 356.527 49.4395 355.156 49.4395C353.844 49.4395 352.643 49.2871 351.553 48.9824C350.475 48.666 349.496 48.2324 348.617 47.6816C347.75 47.1191 346.988 46.4629 346.332 45.7129C345.676 44.9629 345.131 44.1484 344.697 43.2695C344.264 42.3789 343.936 41.4531 343.713 40.4922C343.502 39.5195 343.396 38.541 343.396 37.5566C343.396 36.5605 343.508 35.5762 343.73 34.6035C343.953 33.6191 344.287 32.6875 344.732 31.8086C345.178 30.9297 345.734 30.1211 346.402 29.3828C347.07 28.6328 347.85 27.9883 348.74 27.4492C349.631 26.8984 350.633 26.4707 351.746 26.166C352.859 25.8613 354.084 25.709 355.42 25.709ZM379.994 42.2324C379.994 42.7129 380.059 43.0879 380.188 43.3574C380.316 43.627 380.475 43.832 380.662 43.9727C380.861 44.1016 381.072 44.1953 381.295 44.2539C381.518 44.3008 381.723 44.3535 381.91 44.4121C382.109 44.4707 382.273 44.5586 382.402 44.6758C382.531 44.7812 382.596 44.9629 382.596 45.2207C382.596 46.5566 381.904 47.5234 380.521 48.1211C379.139 48.707 377.141 49 374.527 49C373.262 49 372.143 48.9297 371.17 48.7891C370.197 48.6484 369.377 48.4258 368.709 48.1211C368.041 47.8047 367.531 47.4121 367.18 46.9434C366.84 46.4629 366.67 45.8887 366.67 45.2207C366.67 44.9629 366.734 44.7812 366.863 44.6758C366.992 44.5586 367.15 44.4707 367.338 44.4121C367.525 44.3535 367.73 44.3008 367.953 44.2539C368.176 44.207 368.381 44.1191 368.568 43.9902C368.756 43.8496 368.914 43.6562 369.043 43.4102C369.172 43.1523 369.236 42.7832 369.236 42.3027V32.916C369.236 32.4473 369.172 32.084 369.043 31.8262C368.914 31.5684 368.756 31.375 368.568 31.2461C368.381 31.1055 368.176 31.0117 367.953 30.9648C367.73 30.918 367.525 30.8652 367.338 30.8066C367.15 30.748 366.992 30.666 366.863 30.5605C366.734 30.4434 366.67 30.2559 366.67 29.998C366.67 29.3301 366.84 28.7617 367.18 28.293C367.531 27.8125 368.041 27.4199 368.709 27.1152C369.377 26.7988 370.197 26.5703 371.17 26.4297C372.143 26.2891 373.262 26.2188 374.527 26.2188C375.688 26.2188 376.613 26.3359 377.305 26.5703C378.008 26.793 378.559 27.127 378.957 27.5723C379.285 27.3613 379.625 27.1621 379.977 26.9746C380.328 26.7754 380.703 26.6055 381.102 26.4648C381.5 26.3125 381.934 26.1953 382.402 26.1133C382.871 26.0312 383.387 25.9902 383.949 25.9902C384.652 25.9902 385.326 26.0664 385.971 26.2188C386.627 26.3594 387.207 26.5996 387.711 26.9395C388.215 27.2676 388.613 27.7012 388.906 28.2402C389.211 28.7676 389.363 29.4238 389.363 30.209C389.363 30.7246 389.275 31.2285 389.1 31.7207C388.924 32.2129 388.66 32.6523 388.309 33.0391C387.969 33.4141 387.535 33.7188 387.008 33.9531C386.492 34.1875 385.895 34.3047 385.215 34.3047C384.535 34.3047 384.002 34.2051 383.615 34.0059C383.229 33.8066 382.93 33.5605 382.719 33.2676C382.508 32.9746 382.35 32.6582 382.244 32.3184C382.15 31.9668 382.045 31.6445 381.928 31.3516C381.822 31.0586 381.676 30.8125 381.488 30.6133C381.312 30.4141 381.043 30.3145 380.68 30.3145C380.316 30.3145 380.076 30.3613 379.959 30.4551C379.842 30.5371 379.783 30.6602 379.783 30.8242C379.783 31.0352 379.824 31.3047 379.906 31.6328C379.988 31.9609 380.029 32.3594 380.029 32.8281L379.994 42.2324Z" fill="black"/>
<circle cx="31" cy="34" r="30" fill="#BA296F" stroke="black" stroke-width="2"/>
<path d="M28.7701 17.6115C29.9179 16.491 30.5416 15.4522 30.721 14.8687C30.8898 15.4522 31.5194 16.491 32.5997 17.6115C33.2923 18.3299 34.5115 19.0387 35.6235 19.6549C40.5877 21.91 44.1921 27.3702 44.5949 33.873C44.6363 33.8849 44.6775 33.8977 44.7187 33.9115C46.476 34.5015 47.3501 36.6908 46.671 38.8015C46.1254 40.4974 44.7431 41.6266 43.3094 41.6989C42.8182 42.887 42.2062 44.0024 41.5008 45.0256C41.4437 45.3195 41.3672 45.6166 41.2705 45.914C40.4342 48.4879 38.3936 50.1505 36.6367 49.738C34.6968 50.9494 32.5894 51.635 30.5387 51.635C28.6234 51.635 26.5286 50.9114 24.5535 49.6375C22.7911 50.0832 20.7255 48.4232 19.8755 45.8368C19.7647 45.4998 19.6799 45.1632 19.6199 44.831C18.9388 43.8565 18.3396 42.8013 17.8507 41.6817C16.2518 41.8767 14.6056 40.6908 13.9978 38.8015C13.3187 36.6908 14.1928 34.5015 15.9501 33.9115C16.1277 33.8519 16.3075 33.8109 16.4879 33.7875C16.9325 27.0864 20.7781 21.5057 26.0003 19.4218C27.0511 18.863 28.1253 18.2409 28.7701 17.6115Z" fill="#FEE6E6"/>
<path fill-rule="evenodd" clip-rule="evenodd" d="M30.7304 13.6431C31.2724 13.6476 31.747 14.0075 31.8976 14.5281C31.9859 14.8334 32.4589 15.7004 33.4813 16.7609C34.0159 17.3154 35.0413 17.9304 36.1753 18.5598C41.3831 20.948 45.1042 26.4917 45.7553 33.0286C47.8424 34.1452 48.5842 36.8541 47.837 39.1768C47.2548 40.9862 45.8532 42.3985 44.1626 42.8077C43.7268 43.7612 43.218 44.6666 42.6495 45.5147C42.5909 45.7736 42.5197 46.0333 42.4354 46.2927C41.954 47.7744 41.1126 49.0408 40.0764 49.8926C39.1846 50.6257 38.0637 51.1099 36.8918 51.0152C34.9 52.1794 32.7158 52.8605 30.538 52.8605C28.4667 52.8605 26.2982 52.1334 24.2946 50.9212C23.1227 51.0279 21.9974 50.5529 21.1004 49.8266C20.0525 48.9781 19.1997 47.708 18.7105 46.2194C18.6117 45.9188 18.5304 45.6175 18.4662 45.3177C17.9496 44.5574 17.4792 43.7518 17.0667 42.9071C15.1317 42.7078 13.4716 41.1698 12.8304 39.1768C12.034 36.7013 12.929 33.7871 15.3414 32.8294C16.0736 26.1424 20.0242 20.5182 25.4814 18.3092C26.5252 17.752 27.4214 17.2147 27.9133 16.7345C28.9805 15.6927 29.452 14.8236 29.5488 14.5086C29.708 13.9906 30.1885 13.6386 30.7304 13.6431ZM25.9996 19.4218C20.7773 21.5056 16.9318 27.0863 16.4872 33.7875C16.3068 33.8109 16.127 33.8519 15.9494 33.9115C14.1921 34.5014 13.318 36.6907 13.9971 38.8015C14.6049 40.6907 16.2511 41.8767 17.85 41.6817C18.3389 42.8012 18.9381 43.8564 19.6192 44.831C19.6792 45.1631 19.764 45.4997 19.8748 45.8368C20.7248 48.4231 22.7904 50.0832 24.5528 49.6375C26.5279 50.9114 28.6227 51.635 30.538 51.635C32.5887 51.635 34.6961 50.9494 36.636 49.738C38.3929 50.1504 40.4335 48.4879 41.2698 45.914C41.3665 45.6165 41.443 45.3194 41.5001 45.0256C42.2055 44.0023 42.8175 42.8869 43.3087 41.6989C44.7424 41.6265 46.1247 40.4974 46.6703 38.8015C47.3494 36.6907 46.4753 34.5014 44.718 33.9115C44.6768 33.8977 44.6356 33.8848 44.5942 33.873C44.1914 27.3701 40.587 21.91 35.6228 19.6548C34.5108 19.0387 33.2916 18.3299 32.599 17.6115C32.1267 17.1216 31.7405 16.6474 31.4413 16.2199C31.0562 15.6697 30.8153 15.1971 30.7203 14.8686C30.6198 15.1956 30.3798 15.6654 29.9864 16.2124C29.6776 16.6418 29.2742 17.1187 28.7694 17.6115C28.1246 18.2409 27.0504 18.8629 25.9996 19.4218Z" fill="black"/>
<path fill-rule="evenodd" clip-rule="evenodd" d="M31.0662 12.3528L30.6079 11L30.1331 12.3478L30.1325 12.3496L30.1302 12.3561L30.1205 12.3832C30.1118 12.4073 30.0986 12.4433 30.0814 12.4898C30.0468 12.5829 29.9956 12.7181 29.9298 12.8844C29.7981 13.2175 29.6086 13.6739 29.3773 14.1679C28.904 15.1786 28.2915 16.2658 27.6792 16.8221C27.5374 16.951 27.1882 17.1891 26.6998 17.4929C26.2255 17.788 25.6568 18.1227 25.1072 18.439C24.5582 18.7549 24.0311 19.0507 23.6411 19.2677C23.4462 19.3761 23.2856 19.4647 23.1739 19.5262C23.1181 19.557 23.0745 19.5809 23.0448 19.5971L23 19.6217L23.4535 20.4291L25.7496 19.4412L24.0431 22.1637L26.7385 21.0235L24.861 24.0188L28.1543 22.231L27.1342 24.5244L29.6862 23.119L28.9282 25L30.1595 24.2776C30.8266 23.8862 32.5171 22.79 34.0213 21.4895C35.0711 20.5817 35.6109 19.7484 35.8541 19.1449L36 18.7829L35.6401 18.5897C34.6938 18.0817 34.1295 17.5357 33.5124 16.9386C33.4758 16.9032 33.439 16.8676 33.4019 16.8319C32.8257 16.2757 32.2427 15.1869 31.7905 14.1749C31.5695 13.6805 31.3879 13.2236 31.2616 12.8902C31.1985 12.7237 31.1493 12.5884 31.1161 12.4952C31.0994 12.4486 31.0868 12.4125 31.0784 12.3883L31.069 12.3611L31.0668 12.3545L31.0662 12.3528ZM27.8934 17.8313L26.4419 20.147L29.1373 19.0068L27.5843 21.4844L30.1719 20.0797L29.1634 22.347L31.5804 21.016L30.9057 22.6902C31.6342 22.1923 32.5252 21.538 33.3542 20.8212C34.0967 20.1792 34.5307 19.6023 34.7727 19.1648C33.921 18.6508 33.3553 18.103 32.8165 17.5812C32.7763 17.5423 32.7363 17.5035 32.6963 17.465C31.9766 16.7702 31.3344 15.5297 30.8855 14.5252C30.7768 14.282 30.6775 14.048 30.5891 13.8323C30.4959 14.0499 30.3909 14.2865 30.2758 14.5323C29.8048 15.5381 29.1286 16.78 28.3639 17.4748C28.2537 17.5749 28.0898 17.6969 27.8934 17.8313Z" fill="black"/>
<path d="M25.7335 37.806V36.2696L26.1214 36.2065L26.1506 37.9374C26.017 37.8798 25.8775 37.8355 25.7335 37.806Z" fill="black"/>
<path d="M25.4093 37.767L24.9343 36.3741L24.5643 36.5107L25.014 37.8295C25.1421 37.7965 25.2742 37.7754 25.4093 37.767Z" fill="black"/>
<path d="M24.4922 38.0395L23.7128 36.6434L23.3733 36.8486L24.1632 38.2635C24.2669 38.1792 24.3769 38.1042 24.4922 38.0395Z" fill="black"/>
<path d="M23.7971 38.632L22.7398 37.3318L22.4401 37.5956L23.5622 38.9755C23.6322 38.8537 23.7109 38.7389 23.7971 38.632Z" fill="black"/>
<path d="M23.3208 39.5258L22.1241 38.5297L21.8788 38.8487L23.2187 39.964C23.2418 39.8132 23.2762 39.6668 23.3208 39.5258Z" fill="black"/>
<path d="M23.1869 40.5412L21.7409 39.964L21.5605 40.3269L23.248 41.0341C23.2145 40.8748 23.1937 40.7101 23.1869 40.5412Z" fill="black"/>
<path d="M27.105 38.4338V36.4423H26.7124V38.1148C26.853 38.2059 26.9845 38.313 27.105 38.4338Z" fill="black"/>
<path d="M28.4788 40.3231C28.4788 42.0153 27.1605 43.387 25.5343 43.387C23.9081 43.387 22.5898 42.0153 22.5898 40.3231C22.5898 38.631 23.9081 37.2593 25.5343 37.2593C27.1605 37.2593 28.4788 38.631 28.4788 40.3231Z" fill="white"/>
<path fill-rule="evenodd" clip-rule="evenodd" d="M25.5343 42.57C26.7269 42.57 27.6936 41.564 27.6936 40.3231C27.6936 39.0823 26.7269 38.0763 25.5343 38.0763C24.3418 38.0763 23.375 39.0823 23.375 40.3231C23.375 41.564 24.3418 42.57 25.5343 42.57ZM25.5343 43.387C27.1605 43.387 28.4788 42.0153 28.4788 40.3231C28.4788 38.631 27.1605 37.2593 25.5343 37.2593C23.9081 37.2593 22.5898 38.631 22.5898 40.3231C22.5898 42.0153 23.9081 43.387 25.5343 43.387Z" fill="black"/>
<path d="M27.6935 41.1406C27.6935 42.1558 26.9026 42.9789 25.9268 42.9789C24.9511 42.9789 24.1602 42.1558 24.1602 41.1406C24.1602 40.1253 24.9511 39.3022 25.9268 39.3022C26.9026 39.3022 27.6935 40.1253 27.6935 41.1406Z" fill="black"/>
<path d="M34.8351 37.6356L34.9017 36.2696L34.5138 36.2065L34.418 37.767C34.5516 37.7094 34.6911 37.6651 34.8351 37.6356Z" fill="black"/>
<path d="M35.2259 37.767L35.7009 36.3741L36.0709 36.5107L35.6212 37.8295C35.4931 37.7965 35.361 37.7754 35.2259 37.767Z" fill="black"/>
<path d="M36.1429 38.0395L36.9223 36.6434L37.2618 36.8486L36.4719 38.2635C36.3682 38.1792 36.2583 38.1042 36.1429 38.0395Z" fill="black"/>
<path d="M36.838 38.632L37.8953 37.3318L38.1949 37.5956L37.0729 38.9755C37.0029 38.8537 36.9243 38.7389 36.838 38.632Z" fill="black"/>
<path d="M37.3143 39.5258L38.511 38.5297L38.7562 38.8487L37.4164 39.964C37.3933 39.8132 37.359 39.6668 37.3143 39.5258Z" fill="black"/>
<path d="M37.4482 40.5412L39.0013 39.8565L39.1816 40.2193L37.3871 41.0341C37.4206 40.8748 37.4414 40.7101 37.4482 40.5412Z" fill="black"/>
<path d="M33.5302 38.4338V36.4423H33.9228V38.1148C33.7822 38.2059 33.6507 38.313 33.5302 38.4338Z" fill="black"/>
<path d="M32.1562 40.3231C32.1562 42.0153 33.4744 43.387 35.1005 43.387C36.7267 43.387 38.0449 42.0153 38.0449 40.3231C38.0449 38.631 36.7267 37.2593 35.1005 37.2593C33.4744 37.2593 32.1562 38.631 32.1562 40.3231Z" fill="white"/>
<path fill-rule="evenodd" clip-rule="evenodd" d="M35.1005 42.57C33.908 42.57 32.9413 41.564 32.9413 40.3231C32.9413 39.0823 33.908 38.0763 35.1005 38.0763C36.293 38.0763 37.2598 39.0823 37.2598 40.3231C37.2598 41.564 36.293 42.57 35.1005 42.57ZM35.1005 43.387C33.4744 43.387 32.1562 42.0153 32.1562 40.3231C32.1562 38.631 33.4744 37.2593 35.1005 37.2593C36.7267 37.2593 38.0449 38.631 38.0449 40.3231C38.0449 42.0153 36.7267 43.387 35.1005 43.387Z" fill="black"/>
<path d="M33.791 41.1406C33.791 42.1558 34.5819 42.9789 35.5576 42.9789C36.5333 42.9789 37.3242 42.1558 37.3242 41.1406C37.3242 40.1253 36.5333 39.3022 35.5576 39.3022C34.5819 39.3022 33.791 40.1253 33.791 41.1406Z" fill="black"/>
<path d="M32.128 43.3035C31.9142 43.1966 31.7041 43.2045 31.5283 43.2524C31.3684 43.296 31.219 43.3782 31.1087 43.4395C30.8527 43.5817 30.6954 43.6689 30.5155 43.6689V43.6682C30.2767 43.6682 30.0612 43.5742 29.7799 43.4486C29.6515 43.3914 29.4951 43.3217 29.3363 43.28C29.1714 43.2367 28.9737 43.2147 28.7641 43.2776C28.7277 43.2885 28.7104 43.2895 28.7081 43.2897C28.7088 43.2897 28.7113 43.2898 28.7153 43.2903C28.7297 43.2921 28.7508 43.2978 28.7739 43.3101C28.7891 43.3183 28.8052 43.3293 28.8208 43.3439C28.8562 43.3772 28.8705 43.4118 28.8758 43.4288C28.8808 43.4449 28.8815 43.4565 28.8815 43.4647H28.0645C28.0645 43.5519 28.0821 43.7709 28.2613 43.9393C28.4685 44.134 28.7477 44.1355 28.9989 44.0601C29.0162 44.0549 29.0511 44.0498 29.1288 44.0702C29.2125 44.0922 29.3087 44.1331 29.447 44.1948L29.4845 44.2116C29.7354 44.324 30.095 44.4852 30.5155 44.4852V44.4859C30.9157 44.4859 31.2478 44.2988 31.4566 44.1811C31.4737 44.1714 31.49 44.1623 31.5054 44.1537C31.6249 44.0873 31.6925 44.0545 31.7433 44.0407C31.7547 44.0376 31.762 44.0364 31.7661 44.036C32.0513 44.1773 32.3368 44.1513 32.5525 44.0467C32.6573 43.9959 32.7506 43.9244 32.8222 43.8385C32.8866 43.7613 32.9666 43.6311 32.9666 43.4647H32.1496C32.1496 43.4116 32.163 43.3733 32.1718 43.3534C32.1811 43.3325 32.1904 43.3204 32.1945 43.3155C32.1987 43.3104 32.2011 43.3086 32.2011 43.3086C32.2011 43.3086 32.1995 43.3099 32.1961 43.3115C32.1901 43.3144 32.1826 43.3165 32.1742 43.3166C32.1672 43.3167 32.1522 43.3156 32.128 43.3035Z" fill="black"/>
<path fill-rule="evenodd" clip-rule="evenodd" d="M28.4868 46.2461C28.3989 46.3878 28.2472 46.5869 28.0416 46.6897C28.0324 46.6943 28.0229 46.6991 28.0131 46.704C27.8308 46.7956 27.5493 46.9371 27.2461 46.9371V46.12C27.3348 46.12 27.4473 46.0733 27.6735 45.9603C27.6735 45.9603 27.6863 45.9517 27.7094 45.9268C27.7361 45.898 27.7653 45.8592 27.7926 45.8153C27.8199 45.7713 27.8405 45.7298 27.853 45.6986C27.8592 45.6832 27.8617 45.6742 27.8624 45.6718C27.8636 45.6668 27.8589 45.6822 27.8589 45.7115H28.6759C28.6759 45.8254 28.6391 45.9333 28.6116 46.0021C28.5793 46.0826 28.5361 46.1667 28.4868 46.2461Z" fill="black"/>
<path fill-rule="evenodd" clip-rule="evenodd" d="M28.8586 46.3674C29.0248 46.4505 29.3093 46.4996 29.6505 46.5195C29.9815 46.5389 30.2801 46.704 30.501 46.704V47.521C30.3133 47.521 29.9656 47.3564 29.6028 47.3352C29.2501 47.3146 28.8197 47.2615 28.4932 47.0982L27.6762 46.6897L28.0416 45.9589L28.8586 46.3674Z" fill="black"/>
<path fill-rule="evenodd" clip-rule="evenodd" d="M32.5416 46.2461C32.6296 46.3878 32.7812 46.5869 32.9869 46.6897C32.9961 46.6943 33.0056 46.6991 33.0154 46.704C33.1976 46.7956 33.4792 46.9371 33.7823 46.9371V46.12C33.6936 46.12 33.5811 46.0733 33.355 45.9603C33.355 45.9603 33.3421 45.9517 33.319 45.9268C33.2923 45.898 33.2631 45.8592 33.2358 45.8153C33.2085 45.7713 33.1879 45.7298 33.1755 45.6986C33.1693 45.6832 33.1667 45.6742 33.1661 45.6718C33.1648 45.6668 33.1696 45.6822 33.1696 45.7115H32.3525C32.3525 45.8254 32.3893 45.9333 32.4169 46.0021C32.4491 46.0826 32.4923 46.1667 32.5416 46.2461Z" fill="black"/>
<path fill-rule="evenodd" clip-rule="evenodd" d="M32.1698 46.3674C32.0036 46.4505 31.7191 46.4996 31.378 46.5195C31.0469 46.5389 30.7218 46.704 30.501 46.704V47.521C30.6886 47.521 31.0628 47.3564 31.4256 47.3352C31.7783 47.3146 32.2087 47.2615 32.5352 47.0982L33.3523 46.6897L32.9869 45.9589L32.1698 46.3674Z" fill="black"/>
</svg>
