

<svg version="1.1" xmlns="http://www.w3.org/2000/svg" xmlns:xlink="http://www.w3.org/1999/xlink" id="snapshot-36887" width="906" height="225" viewBox="0 0 906 225">
  <defs>
<!--image 77746-->
    <g id="transformed-77746" data-image="77746" transform="rotate(180 395.75 116.75)">
      <g>
        <svg version="1.1" width="203" height="241" viewBox="0 0 203 241">
          <g id="original-77746">
            <svg xmlns="http://www.w3.org/2000/svg" fill="none" viewBox="0 0 61 72" xmlns:xlink="http://www.w3.org/1999/xlink" version="1.1" preserveAspectRatio="xMidYMid meet">
              <path d="M0 62.5c4.452 0 8.062 3.558 8.062 7.938 0 .154-.005.308-.013.46.286.033.571.067.857.102 2.418-4.403 5.32-8.72 8.594-12.5-3.813-5.478-10.242-9-17.5-9v13z" fill="rgba(184, 184, 184, 0.8)" stroke="none"/>
              <path d="M0 41.696c9.345.153 17.657 4.541 23 11.304 3.23-2.988 6.752-5.634 10.5-8A42.606 42.606 0 000 28.805v12.89z" fill="rgba(184, 184, 184, 0.8)" stroke="none"/>
              <path d="M0 20.875c16.63 0 31.323 7.908 40.5 20.125 4.261-2.064 8.314-3.79 13-5C41.989 18.621 22.62 7.169 0 7v13.875z" fill="rgba(184, 184, 184, 0.8)" stroke="none"/>
              <g>
                <path d="M0 0a71.71 71.71 0 0161 34.598c-2.485.377-5.106.779-7.5 1.402C42.058 18.582 22.485 7.126 0 6.956V0z" fill="rgba(255, 255, 255, 0.8)" stroke="none"/>
                <path d="M40.5 41C31.377 28.755 16.53 20.863 0 20.863v7.948c13.534 0 25.804 6.344 33.5 16.189 2.263-1.44 4.573-2.814 7-4z" fill="rgba(255, 255, 255, 0.8)" stroke="none"/>
                <path d="M23 53C17.689 46.222 9.29 41.884 0 41.73v7.77c7.215 0 13.71 3.51 17.5 9 1.718-2 3.572-3.7 5.5-5.5z" fill="rgba(255, 255, 255, 0.8)" stroke="none"/>
                <path d="M8 71c.01-.153.014-.307.014-.462 0-4.39-3.588-8.038-8.014-8.038v8.038c2.705.008 5.374.165 8 .462z" fill="rgba(255, 255, 255, 0.8)" stroke="none"/>
              </g>
            </svg>
          </g>
        </svg>
      </g>
    </g>
<!--/image 77746-->
<!--image 39646-->
    <g id="transformed-39646" data-image="39646" transform="rotate(180 266.75 117.25)">
      <g transform="matrix(-1 0 0 1 203 0)">
        <svg version="1.1" width="203" height="241" viewBox="0 0 203 241">
          <g id="original-39646">
            <svg xmlns="http://www.w3.org/2000/svg" fill="none" viewBox="0 0 61 72" xmlns:xlink="http://www.w3.org/1999/xlink" version="1.1" preserveAspectRatio="xMidYMid meet">
              <path d="M0 62.5c4.452 0 8.062 3.558 8.062 7.938 0 .154-.005.308-.013.46.286.033.571.067.857.102 2.418-4.403 5.32-8.72 8.594-12.5-3.813-5.478-10.242-9-17.5-9v13z" fill="rgba(184, 184, 184, 0.8)" stroke="none"/>
              <path d="M0 41.696c9.345.153 17.657 4.541 23 11.304 3.23-2.988 6.752-5.634 10.5-8A42.606 42.606 0 000 28.805v12.89z" fill="rgba(184, 184, 184, 0.8)" stroke="none"/>
              <path d="M0 20.875c16.63 0 31.323 7.908 40.5 20.125 4.261-2.064 8.314-3.79 13-5C41.989 18.621 22.62 7.169 0 7v13.875z" fill="rgba(184, 184, 184, 0.8)" stroke="none"/>
              <g>
                <path d="M0 0a71.71 71.71 0 0161 34.598c-2.485.377-5.106.779-7.5 1.402C42.058 18.582 22.485 7.126 0 6.956V0z" fill="rgba(255, 255, 255, 0.8)" stroke="none"/>
                <path d="M40.5 41C31.377 28.755 16.53 20.863 0 20.863v7.948c13.534 0 25.804 6.344 33.5 16.189 2.263-1.44 4.573-2.814 7-4z" fill="rgba(255, 255, 255, 0.8)" stroke="none"/>
                <path d="M23 53C17.689 46.222 9.29 41.884 0 41.73v7.77c7.215 0 13.71 3.51 17.5 9 1.718-2 3.572-3.7 5.5-5.5z" fill="rgba(255, 255, 255, 0.8)" stroke="none"/>
                <path d="M8 71c.01-.153.014-.307.014-.462 0-4.39-3.588-8.038-8.014-8.038v8.038c2.705.008 5.374.165 8 .462z" fill="rgba(255, 255, 255, 0.8)" stroke="none"/>
              </g>
            </svg>
          </g>
        </svg>
      </g>
    </g>
<!--/image 39646-->
<!--image 66846-->
    <g id="transformed-66846" data-image="66846" transform="translate(127.5 1.5)">
      <g transform="matrix(-1 0 0 1 203 0)">
        <svg version="1.1" width="203" height="241" viewBox="0 0 203 241">
          <g id="original-66846">
            <svg xmlns="http://www.w3.org/2000/svg" fill="none" viewBox="0 0 61 72" xmlns:xlink="http://www.w3.org/1999/xlink" version="1.1" preserveAspectRatio="xMidYMid meet">
              <path d="M0 62.5c4.452 0 8.062 3.558 8.062 7.938 0 .154-.005.308-.013.46.286.033.571.067.857.102 2.418-4.403 5.32-8.72 8.594-12.5-3.813-5.478-10.242-9-17.5-9v13z" fill="rgba(184, 184, 184, 0.8)" stroke="none"/>
              <path d="M0 41.696c9.345.153 17.657 4.541 23 11.304 3.23-2.988 6.752-5.634 10.5-8A42.606 42.606 0 000 28.805v12.89z" fill="rgba(184, 184, 184, 0.8)" stroke="none"/>
              <path d="M0 20.875c16.63 0 31.323 7.908 40.5 20.125 4.261-2.064 8.314-3.79 13-5C41.989 18.621 22.62 7.169 0 7v13.875z" fill="rgba(184, 184, 184, 0.8)" stroke="none"/>
              <g>
                <path d="M0 0a71.71 71.71 0 0161 34.598c-2.485.377-5.106.779-7.5 1.402C42.058 18.582 22.485 7.126 0 6.956V0z" fill="rgba(255, 255, 255, 0.8)" stroke="none"/>
                <path d="M40.5 41C31.377 28.755 16.53 20.863 0 20.863v7.948c13.534 0 25.804 6.344 33.5 16.189 2.263-1.44 4.573-2.814 7-4z" fill="rgba(255, 255, 255, 0.8)" stroke="none"/>
                <path d="M23 53C17.689 46.222 9.29 41.884 0 41.73v7.77c7.215 0 13.71 3.51 17.5 9 1.718-2 3.572-3.7 5.5-5.5z" fill="rgba(255, 255, 255, 0.8)" stroke="none"/>
                <path d="M8 71c.01-.153.014-.307.014-.462 0-4.39-3.588-8.038-8.014-8.038v8.038c2.705.008 5.374.165 8 .462z" fill="rgba(255, 255, 255, 0.8)" stroke="none"/>
              </g>
            </svg>
          </g>
        </svg>
      </g>
    </g>
<!--/image 66846-->
<!--image 38788-->
    <g id="transformed-38788" data-image="38788" transform="translate(791.5 -1.5)">
      <g>
        <svg version="1.1" width="203" height="241" viewBox="0 0 203 241">
          <g id="original-38788">
            <svg xmlns="http://www.w3.org/2000/svg" fill="none" viewBox="0 0 61 72" xmlns:xlink="http://www.w3.org/1999/xlink" version="1.1" preserveAspectRatio="xMidYMid meet">
              <path d="M0 62.5c4.452 0 8.062 3.558 8.062 7.938 0 .154-.005.308-.013.46.286.033.571.067.857.102 2.418-4.403 5.32-8.72 8.594-12.5-3.813-5.478-10.242-9-17.5-9v13z" fill="rgba(184, 184, 184, 0.8)" stroke="none"/>
              <path d="M0 41.696c9.345.153 17.657 4.541 23 11.304 3.23-2.988 6.752-5.634 10.5-8A42.606 42.606 0 000 28.805v12.89z" fill="rgba(184, 184, 184, 0.8)" stroke="none"/>
              <path d="M0 20.875c16.63 0 31.323 7.908 40.5 20.125 4.261-2.064 8.314-3.79 13-5C41.989 18.621 22.62 7.169 0 7v13.875z" fill="rgba(184, 184, 184, 0.8)" stroke="none"/>
              <g>
                <path d="M0 0a71.71 71.71 0 0161 34.598c-2.485.377-5.106.779-7.5 1.402C42.058 18.582 22.485 7.126 0 6.956V0z" fill="rgba(255, 255, 255, 0.8)" stroke="none"/>
                <path d="M40.5 41C31.377 28.755 16.53 20.863 0 20.863v7.948c13.534 0 25.804 6.344 33.5 16.189 2.263-1.44 4.573-2.814 7-4z" fill="rgba(255, 255, 255, 0.8)" stroke="none"/>
                <path d="M23 53C17.689 46.222 9.29 41.884 0 41.73v7.77c7.215 0 13.71 3.51 17.5 9 1.718-2 3.572-3.7 5.5-5.5z" fill="rgba(255, 255, 255, 0.8)" stroke="none"/>
                <path d="M8 71c.01-.153.014-.307.014-.462 0-4.39-3.588-8.038-8.014-8.038v8.038c2.705.008 5.374.165 8 .462z" fill="rgba(255, 255, 255, 0.8)" stroke="none"/>
              </g>
            </svg>
          </g>
        </svg>
      </g>
    </g>
<!--/image 38788-->
<!--image 03598-->
    <g id="transformed-03598" data-image="3598" transform="rotate(180 280.75 60.75)">
      <g>
        <svg version="1.1" width="203" height="241" viewBox="0 0 203 241">
          <g id="original-03598">
            <svg xmlns="http://www.w3.org/2000/svg" fill="none" viewBox="0 0 61 72" xmlns:xlink="http://www.w3.org/1999/xlink" version="1.1" preserveAspectRatio="xMidYMid meet">
              <path d="M0 62.5c4.452 0 8.062 3.558 8.062 7.938 0 .154-.005.308-.013.46.286.033.571.067.857.102 2.418-4.403 5.32-8.72 8.594-12.5-3.813-5.478-10.242-9-17.5-9v13z" fill="rgba(184, 184, 184, 0.8)" stroke="none"/>
              <path d="M0 41.696c9.345.153 17.657 4.541 23 11.304 3.23-2.988 6.752-5.634 10.5-8A42.606 42.606 0 000 28.805v12.89z" fill="rgba(184, 184, 184, 0.8)" stroke="none"/>
              <path d="M0 20.875c16.63 0 31.323 7.908 40.5 20.125 4.261-2.064 8.314-3.79 13-5C41.989 18.621 22.62 7.169 0 7v13.875z" fill="rgba(184, 184, 184, 0.8)" stroke="none"/>
              <g>
                <path d="M0 0a71.71 71.71 0 0161 34.598c-2.485.377-5.106.779-7.5 1.402C42.058 18.582 22.485 7.126 0 6.956V0z" fill="rgba(255, 255, 255, 0.8)" stroke="none"/>
                <path d="M40.5 41C31.377 28.755 16.53 20.863 0 20.863v7.948c13.534 0 25.804 6.344 33.5 16.189 2.263-1.44 4.573-2.814 7-4z" fill="rgba(255, 255, 255, 0.8)" stroke="none"/>
                <path d="M23 53C17.689 46.222 9.29 41.884 0 41.73v7.77c7.215 0 13.71 3.51 17.5 9 1.718-2 3.572-3.7 5.5-5.5z" fill="rgba(255, 255, 255, 0.8)" stroke="none"/>
                <path d="M8 71c.01-.153.014-.307.014-.462 0-4.39-3.588-8.038-8.014-8.038v8.038c2.705.008 5.374.165 8 .462z" fill="rgba(255, 255, 255, 0.8)" stroke="none"/>
              </g>
            </svg>
          </g>
        </svg>
      </g>
    </g>
<!--/image 03598-->
<!--image 49052-->
    <g id="transformed-49052" data-image="49052" transform="translate(99.5 -111.5)">
      <g>
        <svg version="1.1" width="203" height="241" viewBox="0 0 203 241">
          <g id="original-49052">
            <svg xmlns="http://www.w3.org/2000/svg" fill="none" viewBox="0 0 61 72" xmlns:xlink="http://www.w3.org/1999/xlink" version="1.1" preserveAspectRatio="xMidYMid meet">
              <path d="M0 62.5c4.452 0 8.062 3.558 8.062 7.938 0 .154-.005.308-.013.46.286.033.571.067.857.102 2.418-4.403 5.32-8.72 8.594-12.5-3.813-5.478-10.242-9-17.5-9v13z" fill="rgba(184, 184, 184, 0.8)" stroke="none"/>
              <path d="M0 41.696c9.345.153 17.657 4.541 23 11.304 3.23-2.988 6.752-5.634 10.5-8A42.606 42.606 0 000 28.805v12.89z" fill="rgba(184, 184, 184, 0.8)" stroke="none"/>
              <path d="M0 20.875c16.63 0 31.323 7.908 40.5 20.125 4.261-2.064 8.314-3.79 13-5C41.989 18.621 22.62 7.169 0 7v13.875z" fill="rgba(184, 184, 184, 0.8)" stroke="none"/>
              <g>
                <path d="M0 0a71.71 71.71 0 0161 34.598c-2.485.377-5.106.779-7.5 1.402C42.058 18.582 22.485 7.126 0 6.956V0z" fill="rgba(255, 255, 255, 0.8)" stroke="none"/>
                <path d="M40.5 41C31.377 28.755 16.53 20.863 0 20.863v7.948c13.534 0 25.804 6.344 33.5 16.189 2.263-1.44 4.573-2.814 7-4z" fill="rgba(255, 255, 255, 0.8)" stroke="none"/>
                <path d="M23 53C17.689 46.222 9.29 41.884 0 41.73v7.77c7.215 0 13.71 3.51 17.5 9 1.718-2 3.572-3.7 5.5-5.5z" fill="rgba(255, 255, 255, 0.8)" stroke="none"/>
                <path d="M8 71c.01-.153.014-.307.014-.462 0-4.39-3.588-8.038-8.014-8.038v8.038c2.705.008 5.374.165 8 .462z" fill="rgba(255, 255, 255, 0.8)" stroke="none"/>
              </g>
            </svg>
          </g>
        </svg>
      </g>
    </g>
<!--/image 49052-->
<!--image 70179-->
    <g id="transformed-70179" data-image="70179" transform="rotate(-2 -2985.35 2611.548)">
      <g>
        <svg version="1.1" width="192.079" height="228.035" viewBox="0 0 192.079 228.035">
          <g id="original-70179">
            <svg xmlns="http://www.w3.org/2000/svg" fill="none" viewBox="0 0 61 72" xmlns:xlink="http://www.w3.org/1999/xlink" version="1.1" preserveAspectRatio="xMidYMid meet">
              <path d="M61 62.508c-4.452 0-8.062 3.55-8.062 7.93 0 .154.005.308.013.46-.286.033-.571.067-.857.102-2.418-4.403-5.32-8.72-8.594-12.5 3.813-5.478 10.242-9 17.5-9v13.008z" fill="rgba(184, 184, 184, 0.8)" stroke="none"/>
              <path d="M61 41.696c-9.345.153-17.657 4.541-23 11.304a72.07 72.07 0 00-10.472-8.05C35.271 35.129 47.385 28.806 61 28.806v12.89z" fill="rgba(184, 184, 184, 0.8)" stroke="none"/>
              <path d="M61 20.875c-16.63 0-31.323 7.908-40.5 20.125-4.262-2.064-8.314-3.79-13-5C19.011 18.621 38.38 7.169 61 7v13.875z" fill="rgba(184, 184, 184, 0.8)" stroke="none"/>
              <g>
                <path d="M61 0A71.71 71.71 0 000 34.598c2.485.377 5.106.779 7.5 1.402C18.942 18.582 38.515 7.126 61 6.956V0z" fill="rgba(255, 255, 255, 0.8)" stroke="none"/>
                <path d="M20.5 41C29.623 28.755 44.47 20.863 61 20.863v7.948a42.129 42.129 0 00-33.273 16.182c-2.262-1.44-4.8-2.807-7.227-3.993z" fill="rgba(255, 255, 255, 0.8)" stroke="none"/>
                <path d="M38 53c5.311-6.778 13.71-11.116 23-11.27v7.77c-7.215 0-13.71 3.51-17.5 9-1.718-2-3.572-3.7-5.5-5.5z" fill="rgba(255, 255, 255, 0.8)" stroke="none"/>
                <path d="M53 71a8.04 8.04 0 01-.014-.462c0-4.39 3.588-8.038 8.014-8.038v8.038A72.925 72.925 0 0053 71z" fill="rgba(255, 255, 255, 0.8)" stroke="none"/>
              </g>
            </svg>
          </g>
        </svg>
      </g>
    </g>
<!--/image 70179-->
<!--image 86363-->
    <g id="transformed-86363" data-image="86363" transform="rotate(180 379.75 60.75)">
      <g transform="matrix(-1 0 0 1 203 0)">
        <svg version="1.1" width="203" height="241" viewBox="0 0 203 241">
          <g id="original-86363">
            <svg xmlns="http://www.w3.org/2000/svg" fill="none" viewBox="0 0 61 72" xmlns:xlink="http://www.w3.org/1999/xlink" version="1.1" preserveAspectRatio="xMidYMid meet">
              <path d="M0 62.5c4.452 0 8.062 3.558 8.062 7.938 0 .154-.005.308-.013.46.286.033.571.067.857.102 2.418-4.403 5.32-8.72 8.594-12.5-3.813-5.478-10.242-9-17.5-9v13z" fill="rgba(184, 184, 184, 0.8)" stroke="none"/>
              <path d="M0 41.696c9.345.153 17.657 4.541 23 11.304 3.23-2.988 6.752-5.634 10.5-8A42.606 42.606 0 000 28.805v12.89z" fill="rgba(184, 184, 184, 0.8)" stroke="none"/>
              <path d="M0 20.875c16.63 0 31.323 7.908 40.5 20.125 4.261-2.064 8.314-3.79 13-5C41.989 18.621 22.62 7.169 0 7v13.875z" fill="rgba(184, 184, 184, 0.8)" stroke="none"/>
              <g>
                <path d="M0 0a71.71 71.71 0 0161 34.598c-2.485.377-5.106.779-7.5 1.402C42.058 18.582 22.485 7.126 0 6.956V0z" fill="rgba(255, 255, 255, 0.8)" stroke="none"/>
                <path d="M40.5 41C31.377 28.755 16.53 20.863 0 20.863v7.948c13.534 0 25.804 6.344 33.5 16.189 2.263-1.44 4.573-2.814 7-4z" fill="rgba(255, 255, 255, 0.8)" stroke="none"/>
                <path d="M23 53C17.689 46.222 9.29 41.884 0 41.73v7.77c7.215 0 13.71 3.51 17.5 9 1.718-2 3.572-3.7 5.5-5.5z" fill="rgba(255, 255, 255, 0.8)" stroke="none"/>
                <path d="M8 71c.01-.153.014-.307.014-.462 0-4.39-3.588-8.038-8.014-8.038v8.038c2.705.008 5.374.165 8 .462z" fill="rgba(255, 255, 255, 0.8)" stroke="none"/>
              </g>
            </svg>
          </g>
        </svg>
      </g>
    </g>
<!--/image 86363-->
  </defs>
  <rect x="0" y="0" width="906" height="225" fill="rgba(255, 255, 255, 0)"/>
  <use xlink:href="#transformed-77746" transform="translate(-906 -225)"/>
  <use xlink:href="#transformed-77746" transform="translate(0 -225)"/>
  <use xlink:href="#transformed-77746" transform="translate(906 -225)"/>
  <use xlink:href="#transformed-77746" transform="translate(-906)"/>
  <use xlink:href="#transformed-77746"/>
  <use xlink:href="#transformed-77746" transform="translate(906)"/>
  <use xlink:href="#transformed-77746" transform="translate(-906 225)"/>
  <use xlink:href="#transformed-77746" transform="translate(0 225)"/>
  <use xlink:href="#transformed-77746" transform="translate(906 225)"/>
  <use xlink:href="#transformed-39646" transform="translate(-906 -225)"/>
  <use xlink:href="#transformed-39646" transform="translate(0 -225)"/>
  <use xlink:href="#transformed-39646" transform="translate(906 -225)"/>
  <use xlink:href="#transformed-39646" transform="translate(-906)"/>
  <use xlink:href="#transformed-39646"/>
  <use xlink:href="#transformed-39646" transform="translate(906)"/>
  <use xlink:href="#transformed-39646" transform="translate(-906 225)"/>
  <use xlink:href="#transformed-39646" transform="translate(0 225)"/>
  <use xlink:href="#transformed-39646" transform="translate(906 225)"/>
  <use xlink:href="#transformed-66846" transform="translate(-906 -225)"/>
  <use xlink:href="#transformed-66846" transform="translate(0 -225)"/>
  <use xlink:href="#transformed-66846" transform="translate(906 -225)"/>
  <use xlink:href="#transformed-66846" transform="translate(-906)"/>
  <use xlink:href="#transformed-66846"/>
  <use xlink:href="#transformed-66846" transform="translate(906)"/>
  <use xlink:href="#transformed-66846" transform="translate(-906 225)"/>
  <use xlink:href="#transformed-66846" transform="translate(0 225)"/>
  <use xlink:href="#transformed-66846" transform="translate(906 225)"/>
  <use xlink:href="#transformed-38788" transform="translate(-906 -225)"/>
  <use xlink:href="#transformed-38788" transform="translate(0 -225)"/>
  <use xlink:href="#transformed-38788" transform="translate(906 -225)"/>
  <use xlink:href="#transformed-38788" transform="translate(-906)"/>
  <use xlink:href="#transformed-38788"/>
  <use xlink:href="#transformed-38788" transform="translate(906)"/>
  <use xlink:href="#transformed-38788" transform="translate(-906 225)"/>
  <use xlink:href="#transformed-38788" transform="translate(0 225)"/>
  <use xlink:href="#transformed-38788" transform="translate(906 225)"/>
  <use xlink:href="#transformed-03598" transform="translate(-906 -225)"/>
  <use xlink:href="#transformed-03598" transform="translate(0 -225)"/>
  <use xlink:href="#transformed-03598" transform="translate(906 -225)"/>
  <use xlink:href="#transformed-03598" transform="translate(-906)"/>
  <use xlink:href="#transformed-03598"/>
  <use xlink:href="#transformed-03598" transform="translate(906)"/>
  <use xlink:href="#transformed-03598" transform="translate(-906 225)"/>
  <use xlink:href="#transformed-03598" transform="translate(0 225)"/>
  <use xlink:href="#transformed-03598" transform="translate(906 225)"/>
  <use xlink:href="#transformed-49052" transform="translate(-906 -225)"/>
  <use xlink:href="#transformed-49052" transform="translate(0 -225)"/>
  <use xlink:href="#transformed-49052" transform="translate(906 -225)"/>
  <use xlink:href="#transformed-49052" transform="translate(-906)"/>
  <use xlink:href="#transformed-49052"/>
  <use xlink:href="#transformed-49052" transform="translate(906)"/>
  <use xlink:href="#transformed-49052" transform="translate(-906 225)"/>
  <use xlink:href="#transformed-49052" transform="translate(0 225)"/>
  <use xlink:href="#transformed-49052" transform="translate(906 225)"/>
  <use xlink:href="#transformed-70179" transform="translate(-906 -225)"/>
  <use xlink:href="#transformed-70179" transform="translate(0 -225)"/>
  <use xlink:href="#transformed-70179" transform="translate(906 -225)"/>
  <use xlink:href="#transformed-70179" transform="translate(-906)"/>
  <use xlink:href="#transformed-70179"/>
  <use xlink:href="#transformed-70179" transform="translate(906)"/>
  <use xlink:href="#transformed-70179" transform="translate(-906 225)"/>
  <use xlink:href="#transformed-70179" transform="translate(0 225)"/>
  <use xlink:href="#transformed-70179" transform="translate(906 225)"/>
  <use xlink:href="#transformed-86363" transform="translate(-906 -225)"/>
  <use xlink:href="#transformed-86363" transform="translate(0 -225)"/>
  <use xlink:href="#transformed-86363" transform="translate(906 -225)"/>
  <use xlink:href="#transformed-86363" transform="translate(-906)"/>
  <use xlink:href="#transformed-86363"/>
  <use xlink:href="#transformed-86363" transform="translate(906)"/>
  <use xlink:href="#transformed-86363" transform="translate(-906 225)"/>
  <use xlink:href="#transformed-86363" transform="translate(0 225)"/>
  <use xlink:href="#transformed-86363" transform="translate(906 225)"/>
</svg>