<svg viewBox="0 0 432 416" fill="none" xmlns="http://www.w3.org/2000/svg" xmlns:xlink="http://www.w3.org/1999/xlink">
  <defs>
			<style>
				.tone1{fill:#41444a}
				.tone2{fill:#515d63}
			</style>
			
			<symbol id="circles" viewBox="0 0 72 72">
      <g class="tone1" transform="translate(-287 -39.2)">
        <path d="M359 100c-4.5 0-8.5 3-9 5.5l-.5 1.5h-.5c-2.5-3.5-4.2-5.2-7.5-9 3.8-5.5 10.2-8 17.5-8v10zm0-20c-9.3.2-19.2 4.7-24.5 11.5-3-2.5-5.3-3.6-9-6A42.9 42.9 0 01359 69v11zm0-21a53.7 53.7 0 00-41 22.5c-4.3-2-4.8-2.3-9.5-3.5A59 59 0 01359 49v10z"/>
        <path d="M359 39c-26 .2-49.6 16-62 36.6 2.5.4 9.1 1.8 11.5 2.4A59 59 0 01359 49V39zm-41 42.5A53.7 53.7 0 01359 59v10a42.9 42.9 0 00-33.5 16.5 89 89 0 00-7.5-4zm16.5 10c6.2-7.1 15-11.3 24.5-11.5v10c-7.2 0-13.7 2.5-17.5 8-1.7-2-5-4.7-7-6.5zm17 20l-2-4c0-4.4 5-7.5 9.5-7.5v11c-2.7 0-4.9.2-7.5.5z" class="tone2"/>
      </g>
    </symbol>
			
    <symbol id="scallop" viewBox="0 0 123.2 72.5">
      <g transform="translate(-124 -47.7)">
        <use width="72" height="72" transform="matrix(-1 0 0 1 257.3 47.9)" xlink:href="#circles"/>
        <use width="72" height="72" transform="translate(113.9 48)" xlink:href="#circles"/>
      </g>
    </symbol>
    
    <symbol id="wavy-bacon" viewBox="0 0 143.8 73.3">
      <use width="72" height="72" transform="translate(0 1.3)" xlink:href="#circles"/>
      <use width="72" height="72" transform="rotate(180 72 36)" xlink:href="#circles"/>
    </symbol>
			
    <pattern id="pattern-1" x="0" y="0" width="270" height="71" patternUnits="userSpaceOnUse" patternTransform="translate(0 -16)">
      <rect width="286.1" height="71" class="tone2" rx="1.2" ry="1.2" x="10"/>
      <use width="123" height="72" transform="translate(10)" xlink:href="#scallop"/>
      <use width="123.2" height="72.5" transform="rotate(180 134.5 35.8)" xlink:href="#scallop"/>
    </pattern>
			
    <pattern id="pattern-0" patternUnits="userSpaceOnUse" preserveAspectRatio="none" width="270" height="71" patternTransform="translate(75 17)">
      <rect width="20.4" height="71" class="tone2"  x="193.4" />
      <rect width="20.4" height="71" class="tone2"  x="49.9" />
      <use width="143.8" height="73.3" transform="translate(-7.8 1.9)" xlink:href="#wavy-bacon"/>
      <use width="143.8" height="73.3" transform="matrix(-1 0 0 1 273.1 1.9)" xlink:href="#wavy-bacon"/>
    </pattern>
			
			<pattern id="pattern-2" patternUnits="userSpaceOnUse" preserveAspectRatio="none" width="270" height="71" patternTransform="translate(75 17)">
				<rect  width="432" height="216" style="fill:url(#pattern-1)"/>
  <rect  width="432" height="216" style="fill:url(#pattern-0)"/>
			</pattern>
  </defs>

	<rect y="50" width="432" height="316" style="fill:url(#pattern-2)"/>
</svg>