<svg xmlns="http://www.w3.org/2000/svg" fill="none" viewBox="0 0 398 65">
  <defs/>
  <path fill="#000" d="M90.4 40.2v1.2l.3 1 .5.6c.3.2.6.2 1 .2.7 0 1.2 0 1.6-.2l1.4-.6.6-.2c.2 0 .5.1.6.4.2.2.3.5.3.8l-.1.4a9.3 9.3 0 01-3.2 4.1 8.3 8.3 0 01-5 1.5c-1.3 0-2.4-.1-3.3-.5-1-.3-1.8-.7-2.4-1.3a6.8 6.8 0 01-1.6-2 11 11 0 01-1.3-4.7V29.7h-.9c-.4 0-.8 0-1-.3-.3-.3-.4-.6-.4-.9 0-.3.2-.6.5-.9a86.9 86.9 0 0010.2-8.4l1-.2c.3 0 .6.1.8.4.3.2.4.6.4 1.1v5.7h4.8l.6.2.4.5.2 1c0 .5 0 .8-.2 1l-.4.6-.6.2h-4.8v10.5zm20.3 2l.2 1.2.5.6.6.3.6.1c.2 0 .4.2.5.3.2 0 .2.3.2.5 0 1.4-.7 2.3-2 3a23.7 23.7 0 01-9.4.7l-2.5-.8A4 4 0 0198 47a3 3 0 01-.5-1.7c0-.2 0-.4.2-.5l.5-.3.6-.1.6-.3c.2-.2.4-.3.5-.6l.2-1.1v-9.4c0-.5 0-.8-.2-1l-.5-.7-.6-.2-.6-.2-.5-.2-.2-.6c0-.7.2-1.2.5-1.7.4-.5.9-.9 1.5-1.2.7-.3 1.5-.5 2.5-.7l3.4-.2c1.1 0 2 .1 2.7.4.7.2 1.3.5 1.7 1a14.4 14.4 0 012.1-1.1 7 7 0 012.9-.5c.7 0 1.4 0 2 .2a5 5 0 011.7.7c.6.4 1 .8 1.2 1.3.3.6.5 1.2.5 2 0 .5 0 1-.3 1.5-.1.5-.4 1-.8 1.3-.3.4-.7.7-1.3 1-.5.2-1 .3-1.7.3s-1.3 0-1.6-.3l-1-.7-.4-1-.3-1-.5-.7c-.1-.2-.4-.3-.8-.3-.3 0-.6 0-.7.2l-.2.3.1.8.2 1.2v9.4zm22 3.2c.4 0 .7 0 1-.2l.5-.5c.2-.2.2-.5.3-.9v-1-1.5-1.6-2a7.3 7.3 0 00-1 0c-.5 0-1 0-1.5.3-.4.2-.7.5-1 1l-.5 1.5a11.7 11.7 0 000 3c0 .4.1.7.3 1l.7.7 1.2.2zm8.5 3.6h-1.8l-1.7-.5a4.7 4.7 0 01-2.6-2.4c-.2.6-.6 1-1.1 1.5a10 10 0 01-3.9 1.6 11 11 0 01-5.2-.2c-.9-.3-1.6-.7-2.2-1.2a5 5 0 01-1.4-1.9c-.3-.7-.5-1.5-.5-2.4 0-1 .2-2 .6-3a6 6 0 011.8-2.5c.9-.8 2-1.3 3.5-1.7 1.4-.4 3.2-.7 5.4-.7h2.4a30.6 30.6 0 00-.6-5.2c-.2-.5-.4-.9-.7-1-.2-.3-.6-.4-1-.4s-.8.1-1.1.4a3 3 0 00-.7 1.2l-.4 1.8-.1 2.5a77.2 77.2 0 01-3.3-.2l-1.5-.3c-.5-.1-1-.3-1.3-.6a3 3 0 01-.9-1c-.2-.3-.3-.8-.3-1.4 0-.7.2-1.5.6-2.2.4-.6 1-1.3 1.8-1.8.9-.5 2-1 3.2-1.2 1.3-.3 2.8-.5 4.6-.5 2.1 0 3.9.2 5.4.6 1.5.5 2.7 1.1 3.7 2 1 .8 1.7 1.9 2.1 3.1.5 1.3.7 2.8.7 4.5v6.3c0 .5 0 .9.2 1.1l.5.7.7.3.6.2.5.2.2.6a3 3 0 01-1.6 2.7c-1 .7-2.6 1-4.6 1zm20.6-18.7c0-.3-.2-.5-.7-.7a7.4 7.4 0 00-3.5-.2c-.4 0-.6 0-.8.2-.2 0-.3.2-.4.4v.5c0 .4.1.7.5 1a28.7 28.7 0 003.6 1.6 35 35 0 014.8 2.2c.8.4 1.5 1 2 1.6.7.6 1.2 1.3 1.6 2.1.4.8.5 1.8.5 2.9 0 1.3-.3 2.4-.9 3.4-.6 1-1.4 1.7-2.3 2.3-1 .7-2.2 1.1-3.4 1.4a16.9 16.9 0 01-7.8 0c-1.2-.3-2.4-.6-3.4-1.1-1-.5-1.8-1.1-2.4-1.8a3.4 3.4 0 01-.7-3.6l.6-.9 1-.5a4.2 4.2 0 012.4 0l.8.5.6.7.4.8.4.8a2.7 2.7 0 001.6 1.2c.4.2 1 .2 1.5.2 1 0 1.8 0 2.2-.2.5-.2.8-.6.8-1 0-.3-.2-.4-.6-.6l-1.3-.6a151 151 0 00-4.2-1.5l-2.2-1.2a10 10 0 01-2-1.5c-.5-.6-1-1.3-1.3-2-.3-.8-.5-1.6-.5-2.6s.1-2 .4-2.8c.2-.8.6-1.5 1-2.1.5-.7 1-1.2 1.7-1.6.7-.5 1.4-.8 2.1-1.1a17.7 17.7 0 019-.4c1.2.3 2.1.7 2.9 1.2.7.4 1.2 1 1.6 1.5.3.6.5 1.1.5 1.7a2.6 2.6 0 01-1 2c-.3.3-.6.5-1 .6-.5.2-1 .2-1.6.2h-1.5l-1-.3-.5-.5-.1-.6v-.4a6.7 6.7 0 01.5-.7l.1-.5zm22.4-1.5a9.3 9.3 0 015-2.8 13 13 0 016.4.2c1 .3 1.7.8 2.4 1.4a10 10 0 012.5 4.3l.4 2.3V42.1c0 .5.1.9.3 1.2 0 .3.2.5.4.6.2.2.5.3.7.3l.6.2c.2 0 .4.2.5.3.2 0 .2.3.2.5 0 1.4-.7 2.3-2 3a23.7 23.7 0 01-9.3.7l-2.6-.8a4 4 0 01-1.5-1.2c-.3-.4-.5-1-.5-1.7 0-.2 0-.4.2-.5l.5-.3.6-.2c.2 0 .5-.1.7-.3l.5-.6.1-1.1V35l-.1-2a4 4 0 00-.6-1.5c-.2-.4-.6-.7-1-1-.4-.2-1-.3-1.6-.3a3 3 0 00-1 .1 4.4 4.4 0 00-1.4.8l-.5.4v10.7l.2 1.2.5.6.6.3.7.1c.2 0 .3.2.4.3.2 0 .2.3.2.5 0 1.4-.7 2.3-2 3a16 16 0 01-6 .8c-2.5 0-4.5-.3-5.8-.9-1.4-.6-2-1.5-2-2.9l.1-.5.5-.3.6-.1.6-.3c.2-.2.4-.3.5-.6l.2-1.1V22.5c0-.4 0-.8-.2-1-.1-.3-.3-.5-.5-.6l-.6-.3-.6-.2-.5-.2-.2-.6c0-1.3.7-2.3 2-2.9a15 15 0 015.9-.9l3 .2c.7.2 1.3.4 1.6.7.4.3.6.7.8 1.3l.1 2v8.8zm47.7-1c.2 0 .5-.2.8-.5l1.4-.7c.7-.2 1.5-.5 2.6-.6 1-.2 2.3-.3 4-.3 1.2 0 2.3.2 3.2.4 1 .3 1.7.7 2.3 1.2.7.5 1.2 1.1 1.7 1.8l1 2.3.5 2.4.1 2.6V42c0 .5 0 1 .2 1.2l.4.6c.2.2.5.3.7.3l.6.2c.2 0 .4.2.5.3l.2.5c0 .7-.2 1.3-.5 1.7-.3.5-.8.9-1.5 1.2-.6.3-1.4.5-2.4.7a22 22 0 01-6.4 0c-.9-.2-1.7-.4-2.3-.7-.6-.3-1.1-.7-1.4-1.2a3 3 0 01-.5-1.7l.1-.5.3-.3.5-.1.4-.3.3-.6.1-1.1v-7.6l-.1-1.9c0-.5-.2-1-.4-1.4-.2-.4-.5-.7-.8-.9-.4-.2-.8-.3-1.3-.3-.8 0-1.3.3-1.7.7-.3.5-.5 1.2-.5 2V42c0 .5 0 .9.2 1.2 0 .3.2.5.3.6.2.2.3.3.5.3l.5.2.3.3.2.5c0 .7-.2 1.3-.4 1.7a3 3 0 01-1.3 1.2c-.5.3-1.2.5-2.1.7a20 20 0 01-8.6-.7c-.7-.3-1.1-.7-1.5-1.2a3 3 0 01-.5-1.7c0-.2 0-.4.2-.5l.3-.3.4-.1c.2 0 .3-.2.5-.3l.3-.6.1-1.1v-7.6c0-1.4-.2-2.5-.5-3.3-.4-.8-1-1.2-1.9-1.2a2.6 2.6 0 00-2.6 2.7v9.3l.1 1.2.4.6.5.3.5.1c.2 0 .3.2.4.3l.2.5c0 1.4-.7 2.3-2 3a22.3 22.3 0 01-9 .7L207 48a4 4 0 01-1.5-1.2c-.4-.4-.5-1-.5-1.7 0-.2 0-.4.2-.5l.4-.3.7-.1.6-.3.4-.6c.2-.2.2-.6.2-1.1v-9.4c0-.5 0-.8-.2-1 0-.3-.2-.5-.4-.7l-.6-.2-.7-.2-.4-.2c-.2-.2-.2-.3-.2-.6 0-.7.1-1.2.5-1.7.3-.5.8-.9 1.5-1.2.6-.3 1.4-.5 2.4-.7a21.6 21.6 0 014.6 0 6.9 6.9 0 012.6.8c.5.2.7.5 1 .9.5-.5 1.2-.8 2-1.2a15.7 15.7 0 016-1.2c1.4 0 2.6.2 3.7.6 1 .4 1.9 1 2.5 1.6zm33.5 21.6a14.2 14.2 0 01-7-1.8 11.4 11.4 0 01-4.2-4.5 12.3 12.3 0 01-1-8.7 11.2 11.2 0 013-5.1c.8-.7 1.7-1.4 2.7-1.9a18.5 18.5 0 0111.4-1.2 12.3 12.3 0 015.5 3.1 10.9 10.9 0 012.8 5 12 12 0 01-9 14.7c-1.3.3-2.7.4-4.2.4zm.8-4.5c.4 0 .7 0 1-.3.3-.2.5-.6.6-1l.4-1.6.1-2a130 130 0 00-.3-6.4l-.5-1.8c-.2-.5-.4-.9-.7-1.2-.3-.2-.7-.4-1-.4-.5 0-.8.1-1.1.4-.3.2-.6.5-.7 1-.2.3-.4.8-.5 1.4v1.9a68.6 68.6 0 00.4 6.5l.5 1.8.8 1.3c.3.3.6.4 1 .4zm27.7-2.7c0 .5 0 .9.2 1.2l.4.6.7.3.6.1c.2 0 .4.2.5.3l.2.5c0 1.4-.7 2.3-2 3a23.7 23.7 0 01-9.4.7l-2.5-.8A4 4 0 01281 47a3 3 0 01-.5-1.7l.1-.5.5-.3.6-.1c.3 0 .5-.2.7-.3l.4-.6c.2-.2.2-.6.2-1.1v-9.4c0-.5 0-.8-.2-1l-.4-.7-.7-.2-.6-.2-.5-.2-.1-.6c0-.7.1-1.2.5-1.7.3-.5.8-.9 1.5-1.2.7-.3 1.5-.5 2.5-.7a23.7 23.7 0 016 .1c.7.2 1.3.4 1.6.7.5.2.8.5 1 .9.5-.5 1.3-.8 2.1-1.2a17.1 17.1 0 016.4-1.2c1.2 0 2.4.2 3.3.5a7.1 7.1 0 014 3.2l.9 2.3.4 2.3.1 2.3v5.8c0 .5 0 1 .2 1.2.1.3.3.5.5.6l.6.3.7.2c.2 0 .3.2.5.3l.2.5c0 1.4-.7 2.3-2.1 3a23.7 23.7 0 01-9.3.7l-2.5-.8a4 4 0 01-1.5-1.2c-.4-.4-.5-1-.5-1.7 0-.2 0-.4.2-.5l.4-.3.7-.1.6-.3c.2-.2.4-.3.5-.6l.2-1.1v-7.5c0-.7 0-1.4-.2-2 0-.5-.3-1-.5-1.4-.3-.4-.6-.7-1-.9a3.7 3.7 0 00-2.9 0 2.8 2.8 0 00-1.6 1.3L294 33v9.3zm35-16.5c1.3 0 2.5.1 3.6.4 1 .3 2 .7 2.7 1.2a9.5 9.5 0 013.7-1.5h2.7l1.1.6c.4.2.6.6.8 1 .2.3.3.8.3 1.4a3 3 0 01-.8 2 3 3 0 01-.9.6 3 3 0 01-1.3.3c-.5 0-.8 0-1.1-.2l-.7-.6-.3-.6-.2-.7-.3-.6-.6-.2h-.2l-.2.1a6.5 6.5 0 01.8 7.3c-.5 1-1.2 2-2.2 2.8a11 11 0 01-3.5 2 18.6 18.6 0 01-7.7.5v.5c0 .2.2.5.7.6l1.8.3a110.2 110.2 0 005.5.6l3 .7c1 .4 1.8.8 2.6 1.4a6.2 6.2 0 012.5 5.2c0 1-.2 2-.5 2.8a7.4 7.4 0 01-3.1 3.9l-2.5 1.1-2.7.7-3 .2a30.5 30.5 0 01-6-.7c-1-.2-1.8-.5-2.6-.9s-1.5-.8-2.1-1.4a6.2 6.2 0 01-2-4.7c0-.6.2-1.2.4-1.6.2-.5.5-.9.8-1.2-.6-.4-1-1-1.4-1.6-.3-.6-.5-1.4-.5-2.4 0-.6.1-1.2.3-1.7l1-1.4c.4-.4.9-.7 1.5-1 .5-.3 1.2-.6 2-.8l-1.9-1.1-1.4-1.5a7 7 0 01-1.1-4c0-1 .2-2 .7-2.8.6-1 1.4-1.8 2.4-2.5 1.1-.8 2.5-1.4 4-1.8 1.7-.5 3.7-.7 5.9-.7zm3 26.6c0-.3-.2-.5-.5-.7l-1.1-.4-1.7-.2a262.2 262.2 0 00-6.6-.4v.9l.2 1 .5.8 1 .6c.5.2 1 .4 1.7.5a15.3 15.3 0 004.6 0l1.2-.6.5-.7.1-.8zm-4.1-22l-1.1.1a2 2 0 00-.7.6c-.2.3-.4.6-.4.9l-.2 1a5.5 5.5 0 00.8 2.7l.8 1c.3.2.6.3 1 .3a2 2 0 001.8-1c.2-.2.3-.6.4-1a4.5 4.5 0 000-2.4c0-.5-.3-.8-.5-1.2l-.8-.8a2 2 0 00-1.1-.3zm29 0c-.5 0-.8 0-1.1.2-.4.1-.6.4-.9.7l-.6 1.4-.2 2h5.7l-.2-2.1-.6-1.4a2 2 0 00-1-.7l-1.2-.2zm-1.4-4.6c1.6 0 3 .2 4.3.7 1.2.5 2.3 1.1 3.2 2 .9.8 1.5 1.7 2 2.8.5 1.1.7 2.3.7 3.6 0 .5 0 1-.2 1.2-.1.3-.3.6-.6.7l-1 .3H354c0 1.3.1 2.3.4 3.2.2.8.6 1.4 1 1.8.5.5 1.1.8 1.8 1a9.6 9.6 0 003.4 0 10.5 10.5 0 002.5-.7l.9-.4.5-.1c.3 0 .5 0 .7.3l.2.8v.2l-.1.3a9.3 9.3 0 01-3.5 4.3c-.9.6-1.8 1-3 1.3a14 14 0 01-10.2-1.3 10.9 10.9 0 01-3.9-4.4 13.1 13.1 0 010-11.5 11 11 0 017-5.6c1.2-.3 2.4-.5 3.7-.5zM380 42.2c0 .5 0 .9.2 1.2l.5.6.6.3.6.1c.2 0 .4.2.5.3l.2.5c0 1.4-.7 2.3-2 3a23.7 23.7 0 01-9.4.7l-2.5-.8a4 4 0 01-1.5-1.2c-.4-.4-.5-1-.5-1.7 0-.2 0-.4.2-.5l.4-.3.7-.1.6-.3.4-.6c.2-.2.2-.6.2-1.1v-9.4c0-.5 0-.8-.2-1 0-.3-.2-.5-.4-.7l-.6-.2-.7-.2-.4-.2c-.2-.2-.2-.3-.2-.6 0-.7.1-1.2.5-1.7.3-.5.8-.9 1.5-1.2.7-.3 1.5-.5 2.5-.7l3.3-.2c1.2 0 2.1.1 2.8.4.7.2 1.3.5 1.7 1a14.4 14.4 0 012.1-1.1 7 7 0 012.8-.5c.8 0 1.4 0 2 .2a5 5 0 011.8.7c.5.4 1 .8 1.2 1.3.3.6.5 1.2.5 2l-.3 1.5c-.2.5-.4 1-.8 1.3-.3.4-.8.7-1.3 1-.5.2-1.1.3-1.8.3s-1.2 0-1.6-.3c-.4-.2-.7-.4-.9-.7l-.5-1-.3-1-.4-.7c-.2-.2-.5-.3-.8-.3-.4 0-.6 0-.7.2-.2 0-.2.2-.2.3l.1.8.1 1.2v9.4z"/>
  <circle cx="31" cy="34" r="30" fill="#BA296F" stroke="#000" stroke-width="2"/>
  <path fill="#FEE6E6" d="M28.8 17.6a7.6 7.6 0 002-2.7 8 8 0 001.8 2.7c.7.7 2 1.4 3 2 5 2.3 8.6 7.8 9 14.3h.1c1.8.6 2.7 2.8 2 4.9-.6 1.7-2 2.8-3.4 2.9a18 18 0 01-1.8 3.3l-.2 1c-.9 2.5-3 4.2-4.7 3.7-1.9 1.2-4 2-6 2s-4-.8-6-2c-1.8.4-3.9-1.3-4.7-3.9l-.3-1c-.7-1-1.3-2-1.7-3.1-1.6.2-3.3-1-3.9-2.9-.7-2.1.2-4.3 2-4.9l.5-.1c.4-6.7 4.3-12.3 9.5-14.4a13 13 0 002.8-1.8z"/>
  <path fill="#000" fill-rule="evenodd" d="M30.7 13.6c.6 0 1 .4 1.2 1a7 7 0 001.6 2.2c.5.5 1.5 1.1 2.7 1.8 5.2 2.3 8.9 7.9 9.6 14.4 2 1.1 2.8 3.9 2 6.2-.5 1.8-2 3.2-3.6 3.6-.5 1-1 1.9-1.6 2.7 0 .3 0 .5-.2.8a7.8 7.8 0 01-2.3 3.6c-1 .7-2 1.2-3.2 1.1-2 1.2-4.2 1.9-6.4 1.9-2 0-4.2-.8-6.2-2-1.2.1-2.3-.3-3.2-1a7.8 7.8 0 01-2.6-4.6c-.6-.7-1-1.5-1.4-2.4-2-.2-3.6-1.7-4.3-3.7-.8-2.5.1-5.4 2.5-6.4.8-6.7 4.7-12.3 10.2-14.5 1-.5 2-1 2.4-1.6 1-1 1.6-1.9 1.6-2.2.2-.5.7-.9 1.2-.9zM26 19.4c-5.2 2.1-9 7.7-9.5 14.4l-.6.1c-1.7.6-2.6 2.8-1.9 4.9.6 1.9 2.3 3 3.9 2.9.4 1.1 1 2.2 1.7 3.1 0 .4.2.7.3 1 .8 2.6 2.9 4.3 4.7 3.8 2 1.3 4 2 6 2s4.1-.7 6-1.9c1.8.5 3.8-1.2 4.7-3.8l.2-.9a18 18 0 001.8-3.3c1.4 0 2.8-1.2 3.4-2.9.6-2.1-.2-4.3-2-4.9h-.1c-.4-6.5-4-12-9-14.2-1-.7-2.3-1.4-3-2l-1.2-1.5a5 5 0 01-.7-1.3 5 5 0 01-.7 1.3c-.3.4-.7 1-1.2 1.4a13 13 0 01-2.8 1.8z" clip-rule="evenodd"/>
  <path fill="#000" fill-rule="evenodd" d="M31 12.4l-.4-1.4-.5 1.3a15.7 15.7 0 01-.7 1.9c-.5 1-1.1 2-1.7 2.6l-1 .7a56.5 56.5 0 01-3.7 2.1l.5.8 2.2-1-1.7 2.8 2.7-1.2-1.8 3 3.3-1.8-1 2.3 2.5-1.4-.8 1.9 1.3-.7c.6-.4 2.3-1.5 3.8-2.8 1-1 1.6-1.8 1.9-2.4l.1-.3-.4-.2c-1-.5-1.5-1-2-1.7h-.2a9.4 9.4 0 01-1.6-2.7 24.2 24.2 0 01-.7-1.8zM28 17.8l-1.5 2.3 2.7-1-1.5 2.4 2.6-1.4-1 2.2 2.4-1.3-.7 1.7a28 28 0 002.5-1.9c.7-.6 1.1-1.2 1.4-1.6-.9-.5-1.4-1.1-2-1.6l-.1-.1a10.2 10.2 0 01-2.1-3.7l-.3.7a10 10 0 01-2 3l-.4.3z" clip-rule="evenodd"/>
  <path fill="#000" d="M25.7 37.8v-1.5h.4v1.6h-.4z"/>
  <path fill="#000" d="M25.4 37.8l-.5-1.4-.3.1.4 1.3h.4z"/>
  <path fill="#000" d="M24.5 38l-.8-1.4-.3.2.8 1.5.3-.3z"/>
  <path fill="#000" d="M23.8 38.6l-1-1.3-.4.3 1.2 1.4.2-.4z"/>
  <path fill="#000" d="M23.3 39.5l-1.2-1-.2.3 1.3 1.2.1-.5z"/>
  <path fill="#000" d="M23.2 40.5l-1.5-.5-.1.3 1.6.7v-.5z"/>
  <path fill="#000" d="M27.1 38.4v-2h-.4v1.7l.4.3z"/>
  <path fill="#fff" d="M28.5 40.3a3 3 0 01-3 3 3 3 0 01-3-3 3 3 0 013-3 3 3 0 013 3z"/>
  <path fill="#000" fill-rule="evenodd" d="M25.5 42.6c1.2 0 2.2-1 2.2-2.3 0-1.2-1-2.2-2.2-2.2-1.2 0-2.1 1-2.1 2.2 0 1.3 1 2.3 2.1 2.3zm0 .8a3 3 0 003-3 3 3 0 00-3-3.1 3 3 0 00-3 3 3 3 0 003 3z" clip-rule="evenodd"/>
  <path fill="#000" d="M27.7 41.1c0 1-.8 1.9-1.8 1.9s-1.7-.8-1.7-1.9c0-1 .8-1.8 1.7-1.8 1 0 1.8.8 1.8 1.8z"/>
  <path fill="#000" d="M34.8 37.6l.1-1.3h-.4v1.5l.3-.2z"/>
  <path fill="#000" d="M35.2 37.8l.5-1.4.4.1-.5 1.3h-.4z"/>
  <path fill="#000" d="M36.1 38l.8-1.4.4.2-.8 1.5-.4-.3z"/>
  <path fill="#000" d="M36.8 38.6l1.1-1.3.3.3L37 39l-.3-.4z"/>
  <path fill="#000" d="M37.3 39.5l1.2-1 .3.3-1.4 1.2v-.5z"/>
  <path fill="#000" d="M37.4 40.5L39 40l.2.3-1.8.8v-.5z"/>
  <path fill="#000" d="M33.5 38.4v-2h.4v1.7l-.4.3z"/>
  <path fill="#fff" d="M32.2 40.3a3 3 0 002.9 3 3 3 0 003-3 3 3 0 00-3-3 3 3 0 00-3 3z"/>
  <path fill="#000" fill-rule="evenodd" d="M35.1 42.6c-1.2 0-2.2-1-2.2-2.3 0-1.2 1-2.2 2.2-2.2 1.2 0 2.2 1 2.2 2.2 0 1.3-1 2.3-2.2 2.3zm0 .8a3 3 0 01-3-3 3 3 0 013-3.1 3 3 0 013 3 3 3 0 01-3 3z" clip-rule="evenodd"/>
  <path fill="#000" d="M33.8 41.1c0 1 .8 1.9 1.8 1.9s1.7-.8 1.7-1.9c0-1-.8-1.8-1.7-1.8-1 0-1.8.8-1.8 1.8z"/>
  <path fill="#000" d="M32.1 43.3a.8.8 0 00-.6 0 2 2 0 00-.4.1l-.6.3-.7-.3-.5-.1a1 1 0 00-.5 0v.1h-.7c0 .2 0 .4.2.5.2.2.4.2.7.2h.4v.1c.3.1.7.3 1.1.3a2 2 0 001-.3 1.2 1.2 0 01.3-.2c.3.2.5.2.8 0 0 0 .2 0 .2-.2l.2-.3H32v-.1h.1v-.1z"/>
  <path fill="#000" fill-rule="evenodd" d="M28.5 46.2l-.5.5-.8.2v-.8l.5-.1a.8.8 0 00.2-.3h.8v.3l-.2.2z" clip-rule="evenodd"/>
  <path fill="#000" fill-rule="evenodd" d="M28.9 46.4l.8.1.8.2v.8l-.9-.2a3 3 0 01-1.1-.2l-.8-.4.3-.7.9.4z" clip-rule="evenodd"/>
  <path fill="#000" fill-rule="evenodd" d="M32.5 46.2l.5.5.8.2v-.8l-.4-.1a.8.8 0 01-.2-.3h-.8v.3l.1.2z" clip-rule="evenodd"/>
  <path fill="#000" fill-rule="evenodd" d="M32.2 46.4l-.8.1-.9.2v.8l1-.2c.3 0 .7 0 1-.2l.9-.4-.4-.7-.8.4z" clip-rule="evenodd"/>
</svg>
